<?xml version="1.0" encoding="UTF-8" standalone="no"?>
<svg
   xmlns:dc="http://purl.org/dc/elements/1.1/"
   xmlns:cc="http://creativecommons.org/ns#"
   xmlns:rdf="http://www.w3.org/1999/02/22-rdf-syntax-ns#"
   xmlns:svg="http://www.w3.org/2000/svg"
   xmlns="http://www.w3.org/2000/svg"
   xmlns:xlink="http://www.w3.org/1999/xlink"
   xmlns:sodipodi="http://sodipodi.sourceforge.net/DTD/sodipodi-0.dtd"
   xmlns:inkscape="http://www.inkscape.org/namespaces/inkscape"
   width="4837.7954"
   height="2721.2598"
   viewBox="0 0 1280 720"
   version="1.1"
   id="svg8"
   sodipodi:docname="acr_16.svg"
   inkscape:version="1.0.1 (1.0.1+r73)">
  <defs
     id="defs2">
    <linearGradient
       inkscape:collect="always"
       id="linearGradient2956">
      <stop
         style="stop-color:#ffcc00;stop-opacity:1;"
         offset="0"
         id="stop2952" />
      <stop
         style="stop-color:#ffcc00;stop-opacity:0;"
         offset="1"
         id="stop2954" />
    </linearGradient>
    <linearGradient
       inkscape:collect="always"
       xlink:href="#linearGradient2956"
       id="linearGradient2958"
       x1="332.02141"
       y1="317.61752"
       x2="788.56123"
       y2="317.61752"
       gradientUnits="userSpaceOnUse" />
    <meshgradient
       inkscape:collect="always"
       id="meshgradient2962"
       gradientUnits="userSpaceOnUse"
       x="398.96833"
       y="156.29454">
      <meshrow
         id="meshrow2964">
        <meshpatch
           id="meshpatch2966">
          <stop
             path="c 89.0962,-89.0962  233.55,-89.0962  322.646,0"
             style="stop-color:#ffffff;stop-opacity:1"
             id="stop2968" />
          <stop
             path="c 89.0962,89.0962  89.0962,233.55  0,322.646"
             style="stop-color:#d45500;stop-opacity:1"
             id="stop2970" />
          <stop
             path="c -89.0962,89.0962  -233.55,89.0962  -322.646,0"
             style="stop-color:#ffffff;stop-opacity:1"
             id="stop2972" />
          <stop
             path="c -89.0962,-89.0962  -89.0962,-233.55  0,-322.646"
             style="stop-color:#d45500;stop-opacity:1"
             id="stop2974" />
        </meshpatch>
      </meshrow>
    </meshgradient>
  </defs>
  <sodipodi:namedview
     id="base"
     pagecolor="#ffffff"
     bordercolor="#666666"
     borderopacity="1.0"
     inkscape:pageopacity="0.0"
     inkscape:pageshadow="2"
     inkscape:zoom="0.2017448"
     inkscape:cx="2418.8977"
     inkscape:cy="1228.3569"
     inkscape:document-units="px"
     inkscape:current-layer="layer1"
     inkscape:document-rotation="0"
     showgrid="false"
     units="px"
     inkscape:window-width="1600"
     inkscape:window-height="832"
     inkscape:window-x="0"
     inkscape:window-y="0"
     inkscape:window-maximized="1" />
  <metadata
     id="metadata5">
    <rdf:RDF>
      <cc:Work
         rdf:about="">
        <dc:format>image/svg+xml</dc:format>
        <dc:type
           rdf:resource="http://purl.org/dc/dcmitype/StillImage" />
        <dc:title></dc:title>
      </cc:Work>
    </rdf:RDF>
  </metadata>
  <g
     inkscape:label="Layer 1"
     inkscape:groupmode="layer"
     id="layer1"
     style="opacity:0.51019104">
    <g
       id="g1070">
      <path
         id="path3108"
         style="opacity:0.497569;fill:#ffffff;stroke-width:0.264583"
         d="M 646.27786,2.598291 A 468.58494,468.58494 0 0 0 177.80775,471.18312 468.58494,468.58494 0 0 0 205.92593,631.06069 H 1086.8592 A 468.58494,468.58494 0 0 0 1114.9779,471.18312 468.58494,468.58494 0 0 0 646.39258,2.598291 a 468.58494,468.58494 0 0 0 -0.11472,0 z" />
      <g
         id="g3054"
         transform="translate(90.942219,-83.012051)">
        <circle
           style="opacity:1;fill:url(#meshgradient2962);fill-opacity:1;stroke:#c40a5b;stroke-width:0.249502;stroke-miterlimit:4;stroke-dasharray:none;stroke-opacity:1"
           id="circle2960"
           cx="560.29132"
           cy="317.61752"
           r="228.14516" />
        <g
           id="g2988"
           transform="translate(-9.8874544,6.7091445)">
          <circle
             style="opacity:1;fill:url(#linearGradient2958);fill-opacity:1;stroke:#c40a5b;stroke-width:0.249502;stroke-miterlimit:4;stroke-dasharray:none;stroke-opacity:1"
             id="path998"
             cx="560.29132"
             cy="317.61752"
             r="228.14516" />
          <g
             id="g984"
             transform="translate(-14.027551,34.550998)">
            <g
               aria-label="C"
               transform="scale(1.0659868,0.9380979)"
               id="text940"
               style="font-style:normal;font-variant:normal;font-weight:normal;font-stretch:normal;font-size:445.382px;line-height:1.25;font-family:sans-serif;-inkscape-font-specification:'sans-serif, Normal';font-variant-ligatures:normal;font-variant-caps:normal;font-variant-numeric:normal;font-variant-east-asian:normal;letter-spacing:0px;word-spacing:0px;fill:#ff4900;fill-opacity:1;stroke:none;stroke-width:0.248205">
              <path
                 d="m 651.78915,98.211902 v 46.321458 q -22.18211,-20.6598 -47.40882,-30.88097 -25.00924,-10.22117 -53.28056,-10.22117 -55.67274,0 -85.24889,34.14305 -29.57615,33.92558 -29.57615,98.29719 0,64.15414 29.57615,98.29719 29.57615,33.92558 85.24889,33.92558 28.27132,0 53.28056,-10.22117 25.22671,-10.22117 47.40882,-30.88097 v 45.88652 q -23.052,15.65796 -48.93112,23.48694 -25.66166,7.82898 -54.36792,7.82898 -73.72289,0 -116.12986,-45.01664 -42.40698,-45.2341 -42.40698,-123.30643 0,-78.2898 42.40698,-123.30643 42.40697,-45.234104 116.12986,-45.234104 29.1412,0 54.80286,7.82898 25.87913,7.611508 48.49618,23.051996 z"
                 style="font-style:normal;font-variant:normal;font-weight:normal;font-stretch:normal;font-size:445.382px;font-family:sans-serif;-inkscape-font-specification:'sans-serif, Normal';font-variant-ligatures:normal;font-variant-caps:normal;font-variant-numeric:normal;font-variant-east-asian:normal;fill:#ff4900;fill-opacity:1;stroke-width:0.248205"
                 id="path953" />
            </g>
            <g
               aria-label="R"
               transform="scale(1.0608024,0.94268264)"
               id="text944"
               style="font-style:normal;font-variant:normal;font-weight:normal;font-stretch:normal;font-size:445.382px;line-height:1.25;font-family:sans-serif;-inkscape-font-specification:'sans-serif, Normal';font-variant-ligatures:normal;font-variant-caps:normal;font-variant-numeric:normal;font-variant-east-asian:normal;letter-spacing:0px;word-spacing:0px;fill:#000bfa;fill-opacity:0.975492;stroke:#c40a5b;stroke-width:0.249502;stroke-miterlimit:4;stroke-dasharray:none;stroke-opacity:1">
              <g
                 id="g959"
                 style="opacity:1">
                <path
                   style="color:#000000;font-style:normal;font-variant:normal;font-weight:normal;font-stretch:normal;font-size:445.382px;line-height:1.25;font-family:sans-serif;-inkscape-font-specification:'sans-serif, Normal';font-variant-ligatures:normal;font-variant-position:normal;font-variant-caps:normal;font-variant-numeric:normal;font-variant-alternates:normal;font-variant-east-asian:normal;font-feature-settings:normal;font-variation-settings:normal;text-indent:0;text-align:start;text-decoration:none;text-decoration-line:none;text-decoration-style:solid;text-decoration-color:#000000;letter-spacing:0px;word-spacing:0px;text-transform:none;writing-mode:lr-tb;direction:ltr;text-orientation:mixed;dominant-baseline:auto;baseline-shift:baseline;text-anchor:start;white-space:normal;shape-padding:0;shape-margin:0;inline-size:0;clip-rule:nonzero;display:inline;overflow:visible;visibility:visible;isolation:auto;mix-blend-mode:normal;color-interpolation:sRGB;color-interpolation-filters:linearRGB;solid-color:#000000;solid-opacity:1;vector-effect:none;fill:#000bfa;fill-opacity:0.975492;fill-rule:nonzero;stroke:none;stroke-width:0.249502;stroke-linecap:butt;stroke-linejoin:miter;stroke-miterlimit:4;stroke-dasharray:none;stroke-dashoffset:0;stroke-opacity:1;color-rendering:auto;image-rendering:auto;shape-rendering:auto;text-rendering:auto;enable-background:accumulate;stop-color:#000000;stop-opacity:1"
                   d="m 821.92563,387.31018 c 9.42377,3.18959 18.55758,10.0037 27.40143,20.44234 8.98883,10.43864 17.97766,24.79177 26.96649,43.05939 l 44.58169,88.72843 H 873.68389 L 832.1468,456.2487 c -10.7286,-21.74717 -21.16724,-36.17279 -31.31592,-43.27686 -10.00369,-7.10407 -23.70441,-10.65611 -41.10214,-10.65611 H 711.88498 V 539.54034 H 667.9557 V 214.85516 h 99.16708 c 37.11516,0 64.80655,7.75649 83.07417,23.26946 18.26762,15.51298 27.40143,38.92743 27.40143,70.24335 0,20.44233 -4.78438,37.40512 -14.35313,50.88837 -9.42377,13.48324 -23.19698,22.83452 -41.31962,28.05384 z M 711.88498,250.95545 v 115.25998 h 55.2378 c 21.16724,0 37.11516,-4.85687 47.84376,-14.5706 10.87359,-9.85871 16.31038,-24.28433 16.31038,-43.27686 0,-18.99253 -5.43679,-33.27317 -16.31038,-42.84192 -10.7286,-9.71373 -26.67652,-14.5706 -47.84376,-14.5706 z"
                   id="path961" />
                <path
                   style="color:#000000;font-style:normal;font-variant:normal;font-weight:normal;font-stretch:normal;font-size:445.382px;line-height:1.25;font-family:sans-serif;-inkscape-font-specification:'sans-serif, Normal';font-variant-ligatures:normal;font-variant-position:normal;font-variant-caps:normal;font-variant-numeric:normal;font-variant-alternates:normal;font-variant-east-asian:normal;font-feature-settings:normal;font-variation-settings:normal;text-indent:0;text-align:start;text-decoration:none;text-decoration-line:none;text-decoration-style:solid;text-decoration-color:#000000;letter-spacing:0px;word-spacing:0px;text-transform:none;writing-mode:lr-tb;direction:ltr;text-orientation:mixed;dominant-baseline:auto;baseline-shift:baseline;text-anchor:start;white-space:normal;shape-padding:0;shape-margin:0;inline-size:0;clip-rule:nonzero;display:inline;overflow:visible;visibility:visible;isolation:auto;mix-blend-mode:normal;color-interpolation:sRGB;color-interpolation-filters:linearRGB;solid-color:#000000;solid-opacity:1;vector-effect:none;fill:#c40a5b;fill-opacity:1;fill-rule:nonzero;stroke:none;stroke-width:0.249502;stroke-linecap:butt;stroke-linejoin:miter;stroke-miterlimit:4;stroke-dasharray:none;stroke-dashoffset:0;stroke-opacity:1;color-rendering:auto;image-rendering:auto;shape-rendering:auto;text-rendering:auto;enable-background:accumulate;stop-color:#000000;stop-opacity:1"
                   d="m 667.83008,214.73047 v 324.93555 h 44.17969 V 402.44141 h 47.71875 c 17.38075,0 31.05343,3.5485 41.02929,10.63281 h 0.002 c 10.1166,7.08162 20.55131,21.49246 31.27539,43.23047 l 41.57226,83.36133 h 47.4707 L 876.4043,450.75586 h 0.002 c -8.99194,-18.27396 -17.98548,-32.63366 -26.98437,-43.08398 -8.75611,-10.33508 -17.80579,-17.10071 -27.14649,-20.34376 17.98524,-5.24355 31.68748,-14.57254 41.07227,-28 9.58597,-13.50751 14.375,-30.49913 14.375,-50.96093 0,-31.34018 -9.14613,-54.7981 -27.44532,-70.33789 C 831.978,222.48934 804.25564,214.73047 767.1231,214.73047 Z m 0.25,0.25 h 99.04297 c 37.09778,0 64.75634,7.75229 82.99218,23.23828 18.23605,15.48617 27.35743,38.85677 27.35743,70.14844 0,20.42287 -4.77855,37.35742 -14.33008,50.8164 v 0.002 c -9.40659,13.45865 -23.15124,22.7909 -41.25196,28.0039 l -0.38281,0.11133 0.37696,0.12695 c 9.39585,3.18014 18.51388,9.97951 27.34765,20.40625 8.97877,10.42696 17.96351,24.77192 26.94922,43.03321 l 44.49219,88.54883 h -46.91211 l -41.50391,-83.2227 C 821.52469,434.43703 811.0831,419.99567 800.90234,412.86914 v 0.002 c -10.03153,-7.12384 -23.75911,-10.67968 -41.17382,-10.67968 h -47.96875 v 137.22461 h -43.67969 z m 43.67969,35.84961 v 0.125 115.38476 h 55.36328 c 21.18632,0 37.16887,-4.86043 47.92773,-14.60156 v -0.002 c 10.90312,-9.88549 16.35156,-24.35281 16.35156,-43.36914 0,-19.01512 -5.44863,-33.33781 -16.35156,-42.9336 l -0.002,-0.002 C 804.28994,255.69163 788.30799,250.82998 767.123,250.82998 Z m 0.25,0.25 h 55.11328 c 21.14815,0 37.06142,4.85272 47.75976,14.53906 h 0.002 c 10.84285,9.54171 16.26757,23.77933 16.26757,42.74805 0,18.96872 -5.42547,33.35361 -16.26953,43.18554 -10.69834,9.68634 -26.61161,14.53711 -47.75976,14.53711 h -55.11328 z"
                   id="path963" />
              </g>
            </g>
            <g
               aria-label="A"
               transform="scale(1.0574272,0.94569159)"
               id="text948"
               style="font-style:normal;font-variant:normal;font-weight:normal;font-stretch:normal;font-size:445.381px;line-height:1.25;font-family:sans-serif;-inkscape-font-specification:'sans-serif, Normal';font-variant-ligatures:normal;font-variant-caps:normal;font-variant-numeric:normal;font-variant-east-asian:normal;letter-spacing:0px;word-spacing:0px;fill:#730784;fill-opacity:1;stroke:none;stroke-width:0.250214">
              <path
                 d="m 335.19032,261.27123 -59.58711,161.5811 H 394.9949 Z M 310.3986,217.99446 h 49.80091 l 123.74111,324.6845 H 438.27167 L 408.69558,459.38749 H 262.33747 l -29.57609,83.29147 h -46.32136 z"
                 style="font-style:normal;font-variant:normal;font-weight:normal;font-stretch:normal;font-size:445.381px;font-family:sans-serif;-inkscape-font-specification:'sans-serif, Normal';font-variant-ligatures:normal;font-variant-caps:normal;font-variant-numeric:normal;font-variant-east-asian:normal;fill:#730784;fill-opacity:1;stroke-width:0.250214"
                 id="path950" />
            </g>
          </g>
        </g>
      </g>
    </g>
    <g
       id="g2963"
       transform="matrix(1.006642,0,0,1.0818283,-7.9909887,-43.989664)">
      <g
         aria-label="AFRICAN"
         transform="scale(1.3211703,0.75690467)"
         id="text2866"
         style="font-style:normal;font-variant:normal;font-weight:normal;font-stretch:normal;font-size:78.3014px;line-height:1.25;font-family:'Conduit 2 Italics BRK';-inkscape-font-specification:'Conduit 2 Italics BRK, Normal';font-variant-ligatures:normal;font-variant-caps:normal;font-variant-numeric:normal;font-variant-east-asian:normal;letter-spacing:0px;word-spacing:0px;fill:#6600ff;fill-opacity:1;stroke:none;stroke-width:0.349559">
        <path
           d="m 362.58565,686.69464 q -1.56603,0 -2.89715,-0.46981 -1.33113,-0.46981 -2.50565,-1.40942 -1.01792,-1.01792 -1.72263,-2.19244 -0.54811,-1.33113 -0.54811,-2.89715 v -0.78302 q 0,-0.78301 0.1566,-1.72263 0,-0.2349 0,-1.01792 0,-0.86131 -0.0783,-1.09622 -0.3132,-1.64433 -1.48772,-2.74054 -1.09622,-1.17453 -2.58395,-1.87924 -1.48773,-0.70471 -2.66225,-0.86131 -1.09622,-0.15661 -2.03583,-0.39151 -1.01792,0 -1.95754,0 l -3.36696,0.3132 q -1.17452,0.23491 -2.11414,0.46981 -0.93961,0.23491 -1.48772,0.39151 -1.25283,0.46981 -1.95754,0.86132 -0.62641,0.3132 -1.40942,0.86131 -1.72263,1.09622 -2.66225,2.50565 -0.93962,1.33112 -1.40943,2.97545 -0.4698,1.56603 -0.86131,2.58394 -0.39151,0.93962 -0.70471,1.64433 -0.93962,2.11414 -2.03584,3.44527 -1.33112,1.40942 -3.36696,1.40942 -1.40943,0 -2.03584,-1.17452 -0.62641,-1.25282 -0.78301,-1.95753 -0.0783,-0.78302 -0.1566,-1.40943 v -3.60186 l 0.3132,-2.58395 6.73392,-31.71207 q 0.46981,-1.64433 1.80093,-3.75846 1.48773,-2.03584 3.52357,-3.75847 2.03583,-1.80093 4.22827,-2.89715 2.19244,-1.17452 3.99337,-1.17452 h 31.94698 q 1.95753,0 3.52356,1.17452 1.87923,1.25282 3.05375,3.05375 1.25283,1.72263 1.64433,3.36696 0.46981,1.56603 0.46981,2.42734 0,0.62642 -0.1566,1.56603 l -6.57732,30.85075 q -0.2349,1.17453 -0.78301,2.50565 -0.23491,0.46981 -0.70472,1.40942 -0.78301,1.33113 -1.40942,2.19244 -0.62641,0.78302 -1.33113,1.56603 -1.64432,1.64433 -3.52356,2.81885 -1.87923,1.09622 -4.07167,1.09622 z M 335.72827,650.8326 q -0.0783,0.39151 -0.0783,1.17452 0,1.56603 0.62641,2.50565 1.17452,1.56602 2.89715,2.50564 1.72263,0.86132 3.75847,1.33112 2.03583,0.46981 3.60186,0.46981 1.56603,0 3.75847,-0.46981 2.27074,-0.4698 4.46318,-1.48772 2.27074,-1.01792 3.60186,-2.34904 1.64433,-1.40943 2.11414,-3.60187 0.1566,-1.09622 0.1566,-1.48772 0,-1.33113 -0.54811,-2.34905 -0.86131,-1.56602 -2.66224,-2.50564 -1.56603,-0.93962 -3.75847,-1.33113 -2.11414,-0.4698 -3.83677,-0.4698 -1.72263,0 -3.99337,0.4698 -2.19244,0.46981 -4.38488,1.48773 -2.11414,0.93962 -3.68016,2.50565 -1.56603,1.48772 -2.03584,3.60186 z"
           style="font-style:normal;font-variant:normal;font-weight:normal;font-stretch:normal;font-size:78.3014px;font-family:'Conduit 2 Italics BRK';-inkscape-font-specification:'Conduit 2 Italics BRK, Normal';font-variant-ligatures:normal;font-variant-caps:normal;font-variant-numeric:normal;font-variant-east-asian:normal;fill:#6600ff;stroke-width:0.349559"
           id="path2876" />
        <path
           d="m 437.35492,642.21945 q -0.62641,2.34904 -1.56603,3.75846 -1.25282,1.72263 -2.81885,2.89716 -1.48773,1.09621 -3.36696,1.80093 -1.87923,0.62641 -3.83677,0.62641 l -2.42734,-0.0783 -2.58395,-0.54811 q -1.25282,-0.46981 -2.19244,-1.17452 -1.01791,-1.01792 -1.01791,-2.03584 v -0.70471 l 0.0783,-0.78302 q -0.46981,-1.09622 -1.80094,-1.64433 -1.48772,-0.78301 -3.21035,-1.01791 -1.48773,-0.39151 -3.68017,-0.39151 l -2.74055,-0.1566 -3.52356,0.2349 q -0.46981,0.0783 -1.87923,0.31321 -1.33113,0.1566 -2.50565,0.54811 -2.27074,0.70471 -3.91507,1.80093 -1.64433,1.09622 -2.11414,2.97545 -0.0783,0.46981 -0.0783,1.17452 0,1.56603 0.62641,2.27074 1.25283,1.25283 3.05376,1.72263 1.87923,0.39151 3.99337,0.62641 2.11414,0.23491 3.83677,0.78302 1.80093,0.46981 2.81885,1.40942 0.78301,0.70472 0.78301,1.87924 0,0.70471 -0.0783,1.01792 -0.31321,1.64432 -1.48773,2.58394 -1.09622,0.93962 -2.58394,1.40943 l -3.36696,0.70471 -3.60187,0.70471 q -1.80093,0.46981 -3.44526,1.17452 -1.87923,1.01792 -2.81885,2.27074 -0.46981,0.46981 -0.86131,1.01792 -0.31321,0.46981 -0.78302,1.25282 -0.46981,0.70472 -0.62641,0.93962 -0.0783,0.23491 -0.39151,1.17452 -0.1566,0.1566 -0.3915,1.17452 l -0.62641,2.03584 -0.62642,2.03584 -0.3915,1.17452 -0.93962,2.19244 -1.25282,2.42734 q -0.70471,1.17452 -1.87924,2.03584 -0.93961,0.86131 -2.27074,0.86131 -1.09622,-0.0783 -1.80093,-0.86131 -0.70471,-0.78302 -1.01792,-1.87924 -0.2349,-1.09622 -0.1566,-2.27074 l -0.0783,-1.95753 q -0.0783,-0.39151 0.0783,-1.25283 l 0.2349,-1.56602 q -0.0783,-0.39151 0.15661,-1.56603 l 0.0783,-0.86132 6.26411,-29.36302 q 0.46981,-2.19244 1.48773,-3.83677 1.48772,-2.11414 2.74055,-3.36696 0.78301,-0.78301 1.72263,-1.48773 0.93961,-0.70471 1.80093,-1.25282 1.80093,-1.17452 3.75847,-1.95753 l 0.3915,-0.0783 0.54811,-0.2349 0.62641,-0.1566 0.62642,-0.0783 h 32.57338 q 1.56603,0 3.05375,0.86131 l 2.74055,1.40943 q 1.87924,1.25282 2.50565,3.13205 0.3132,1.01792 0.3132,2.27074 0,1.25283 -0.1566,1.87924 z"
           style="font-style:normal;font-variant:normal;font-weight:normal;font-stretch:normal;font-size:78.3014px;font-family:'Conduit 2 Italics BRK';-inkscape-font-specification:'Conduit 2 Italics BRK, Normal';font-variant-ligatures:normal;font-variant-caps:normal;font-variant-numeric:normal;font-variant-east-asian:normal;fill:#6600ff;stroke-width:0.349559"
           id="path2878" />
        <path
           d="m 485.81492,676.82866 q -0.46981,2.19244 -1.56603,3.91507 -1.09622,1.72264 -2.74055,3.13206 -1.64433,1.40943 -3.36696,2.11414 -1.72263,0.70471 -3.91507,0.70471 -3.05375,0 -5.40279,-1.95753 -2.27075,-2.03584 -2.27075,-5.01129 -0.0783,-0.23491 -0.0783,-0.70472 0,-0.54811 0.15661,-1.48772 0.1566,-0.93962 0.1566,-1.33113 0,-0.3132 -0.23491,-1.48772 -0.1566,-1.25283 -1.40942,-2.42735 -1.09622,-1.17452 -2.74055,-1.80093 -1.56603,-0.70471 -2.66225,-0.86131 -1.01791,-0.15661 -1.95753,-0.39151 -1.01792,0 -1.95754,0 l -3.52356,0.3132 q -2.19244,0.39151 -3.91507,1.09622 -1.72263,0.62642 -3.28866,1.80094 -1.56603,1.17452 -2.58394,2.89715 -0.70472,1.09622 -1.17453,2.89715 l -1.40942,3.75847 q -0.54811,1.01792 -1.09622,1.87923 -0.54811,0.78301 -1.09622,1.40943 -1.40943,1.40942 -3.21036,1.40942 -1.01792,0 -1.72263,-0.70471 -0.62641,-0.70471 -0.93961,-1.80093 -0.31321,-1.09622 -0.31321,-2.03584 l -0.0783,-1.87923 q -0.0783,-0.31321 0.0783,-1.01792 -0.0783,-0.23491 0.1566,-1.25282 -0.0783,-0.54811 0.0783,-1.17453 v -0.62641 l 6.81223,-31.94697 q 0.3915,-1.17452 1.01791,-2.42734 0.39151,-0.70471 0.86132,-1.40943 1.33112,-1.95753 3.36696,-3.68016 2.03584,-1.80093 4.22827,-2.89715 2.27075,-1.17452 4.07168,-1.17452 h 23.25551 q 1.87924,0 3.75847,1.48772 1.87923,1.40943 2.81885,3.05376 1.25282,2.03583 1.72263,4.14997 0.23491,0.93962 0.23491,1.40943 0.0783,0.4698 0.0783,0.86131 0,0.70471 -0.15661,1.80093 l -2.97545,13.93765 -0.0783,1.40943 0.0783,1.80093 q 0.1566,0.31321 0.1566,1.33112 l 0.15661,1.25283 q 0.2349,0.86131 0.54811,1.40942 0.3132,0.46981 0.78301,0.70471 l 0.93962,0.46981 q 0.86131,0.23491 1.17452,0.62641 0.86131,0.86132 1.09622,1.72263 0.46981,1.09622 0.46981,2.19244 0.0783,0.23491 0.0783,0.70472 0,0.54811 -0.15661,1.64433 z M 447.44723,650.676 q 0,0.3132 -0.1566,1.09622 0,0.46981 0,0.93961 0,0.78302 0.0783,1.17452 0.1566,0.39151 0.46981,1.09622 0.31321,0.70472 0.93962,1.56603 0.62641,0.78302 2.03583,1.64433 1.25283,0.62641 3.05376,0.62641 1.56603,0 2.89715,-0.62641 1.40943,-0.62641 1.95754,-1.01792 0.62641,-0.3915 1.09621,-0.86131 1.40943,-1.09622 2.27075,-2.58395 0.93961,-1.33112 1.33112,-3.05375 0.1566,-1.25282 0.1566,-1.72263 0,-0.54811 -0.2349,-1.72263 -0.23491,-1.17453 -1.09622,-2.19244 -0.86132,-1.01792 -2.11414,-1.64433 -1.17452,-0.62641 -2.97545,-0.62641 -1.01792,0 -1.72263,0.1566 -0.62641,0.1566 -1.48773,0.46981 -1.56603,0.62641 -2.81885,1.64433 -1.17452,1.01791 -1.33112,1.25282 -0.15661,0.1566 -1.09622,1.33112 -0.86132,1.33113 -1.25283,3.05376 z"
           style="font-style:normal;font-variant:normal;font-weight:normal;font-stretch:normal;font-size:78.3014px;font-family:'Conduit 2 Italics BRK';-inkscape-font-specification:'Conduit 2 Italics BRK, Normal';font-variant-ligatures:normal;font-variant-caps:normal;font-variant-numeric:normal;font-variant-east-asian:normal;fill:#6600ff;stroke-width:0.349559"
           id="path2880" />
        <path
           d="m 506.24302,632.82328 q 1.33113,0 2.50565,0.46981 0.70471,0.2349 1.09622,0.54811 1.48772,0.93961 2.34904,2.74055 0.93962,1.72263 1.09622,2.97545 0.1566,1.25282 0.1566,2.34904 0,1.17452 -0.2349,2.27074 l -6.57732,30.92905 q -0.23491,1.17453 -0.78301,2.50565 -0.23491,0.46981 -0.70472,1.40942 -0.78301,1.33113 -1.40942,2.19244 -0.62641,0.78302 -1.33113,1.56603 -1.87923,1.87923 -3.68016,2.89715 -1.72263,1.01792 -3.91507,1.01792 -2.19244,0 -3.83677,-1.25282 -1.56603,-1.25282 -2.19244,-3.05376 -0.93962,-2.03583 -0.93962,-4.07167 -0.0783,-0.46981 -0.0783,-1.33112 0,-1.56603 0.31321,-2.74055 l 6.18581,-29.20642 q 0.62641,-2.11414 1.48772,-4.14998 1.25283,-2.34904 2.66225,-3.99337 1.95754,-1.95753 3.60187,-2.89715 2.03583,-1.17452 4.22827,-1.17452 z"
           style="font-style:normal;font-variant:normal;font-weight:normal;font-stretch:normal;font-size:78.3014px;font-family:'Conduit 2 Italics BRK';-inkscape-font-specification:'Conduit 2 Italics BRK, Normal';font-variant-ligatures:normal;font-variant-caps:normal;font-variant-numeric:normal;font-variant-east-asian:normal;fill:#6600ff;stroke-width:0.349559"
           id="path2882" />
        <path
           d="m 569.48852,642.06284 q -0.93962,4.22828 -4.22827,6.73392 -3.28866,2.50565 -7.36034,2.50565 l -2.42734,-0.0783 -2.58395,-0.54811 q -1.25282,-0.46981 -2.19243,-1.17452 -1.01792,-1.01792 -1.01792,-2.03584 v -0.70471 l 0.0783,-0.78302 q -0.46981,-1.17452 -1.72263,-1.64433 -1.40943,-0.70471 -3.05376,-0.93961 -1.80093,-0.46981 -3.44526,-0.46981 l -2.66225,-0.1566 q -2.11413,0 -3.83676,0.3915 -1.64433,0.39151 -3.44527,1.17452 -3.44526,1.64433 -6.18581,5.1679 l -1.09622,1.72263 q -0.54811,0.86131 -0.70471,1.72263 l -2.81885,13.15463 v 1.80094 l 0.39151,1.64432 q 1.33112,3.75847 4.07167,5.2462 2.74055,1.48773 6.49902,1.48773 2.42734,0 5.5594,-0.39151 3.13205,-0.46981 5.6377,-1.95754 l 0.70471,-0.62641 q 0.1566,-0.1566 0.39151,-0.78301 l 0.3132,-0.70471 0.62641,-0.78302 q 2.27074,-2.03584 4.61979,-2.66225 2.34904,-0.62641 4.61978,-0.62641 2.03583,0 3.75847,0.70472 1.72263,0.62641 2.74054,1.87923 1.09622,1.25282 1.40943,2.81885 0.2349,0.70471 0.2349,1.48773 0,0.70471 -0.1566,1.25282 -0.0783,0.54811 -0.1566,1.09622 -0.62641,2.58394 -2.34904,4.46318 -1.72263,1.80093 -3.83677,2.97545 -2.03584,1.09622 -4.54148,1.72263 -2.50565,0.54811 -4.69809,0.54811 h -27.09228 q -2.42734,0 -4.77639,-1.09622 -2.34904,-1.09622 -3.83677,-2.66225 -1.48772,-1.64433 -2.19243,-4.07167 -0.31321,-1.17452 -0.31321,-2.58394 0,-1.17453 0.2349,-2.34905 l 6.10751,-28.81491 q 0.31321,-1.80093 1.80094,-4.07167 1.56602,-2.27075 3.44526,-3.99338 1.25282,-1.17452 2.11413,-1.80093 0.93962,-0.70471 2.11414,-1.33112 2.42735,-1.25282 4.22828,-1.25282 h 32.57338 q 1.64433,0 3.60186,0.78301 1.80094,0.86132 2.89716,2.03584 0.86131,1.09622 1.17452,1.56602 0.3132,0.39151 0.62641,1.33113 0.3132,0.93961 0.3132,2.03583 0,1.09622 -0.1566,1.64433 z"
           style="font-style:normal;font-variant:normal;font-weight:normal;font-stretch:normal;font-size:78.3014px;font-family:'Conduit 2 Italics BRK';-inkscape-font-specification:'Conduit 2 Italics BRK, Normal';font-variant-ligatures:normal;font-variant-caps:normal;font-variant-numeric:normal;font-variant-east-asian:normal;fill:#6600ff;stroke-width:0.349559"
           id="path2884" />
        <path
           d="m 606.35993,686.69464 q -1.56603,0 -2.89716,-0.46981 -1.33112,-0.46981 -2.50564,-1.40942 -1.01792,-1.01792 -1.72263,-2.19244 -0.54811,-1.33113 -0.54811,-2.89715 v -0.78302 q 0,-0.78301 0.1566,-1.72263 0,-0.2349 0,-1.01792 0,-0.86131 -0.0783,-1.09622 -0.31321,-1.64433 -1.48773,-2.74054 -1.09622,-1.17453 -2.58394,-1.87924 -1.48773,-0.70471 -2.66225,-0.86131 -1.09622,-0.15661 -2.03584,-0.39151 -1.01791,0 -1.95753,0 l -3.36696,0.3132 q -1.17452,0.23491 -2.11414,0.46981 -0.93962,0.23491 -1.48773,0.39151 -1.25282,0.46981 -1.95753,0.86132 -0.62641,0.3132 -1.40943,0.86131 -1.72263,1.09622 -2.66224,2.50565 -0.93962,1.33112 -1.40943,2.97545 -0.46981,1.56603 -0.86131,2.58394 -0.39151,0.93962 -0.70472,1.64433 -0.93961,2.11414 -2.03583,3.44527 -1.33113,1.40942 -3.36696,1.40942 -1.40943,0 -2.03584,-1.17452 -0.62641,-1.25282 -0.78301,-1.95753 -0.0783,-0.78302 -0.15661,-1.40943 v -3.60186 l 0.31321,-2.58395 6.73392,-31.71207 q 0.46981,-1.64433 1.80093,-3.75846 1.48773,-2.03584 3.52356,-3.75847 2.03584,-1.80093 4.22828,-2.89715 2.19244,-1.17452 3.99337,-1.17452 h 31.94697 q 1.95754,0 3.52356,1.17452 1.87924,1.25282 3.05376,3.05375 1.25282,1.72263 1.64433,3.36696 0.46981,1.56603 0.46981,2.42734 0,0.62642 -0.15661,1.56603 l -6.57731,30.85075 q -0.23491,1.17453 -0.78302,2.50565 -0.2349,0.46981 -0.70471,1.40942 -0.78301,1.33113 -1.40942,2.19244 -0.62642,0.78302 -1.33113,1.56603 -1.64433,1.64433 -3.52356,2.81885 -1.87924,1.09622 -4.07167,1.09622 z M 579.50255,650.8326 q -0.0783,0.39151 -0.0783,1.17452 0,1.56603 0.62642,2.50565 1.17452,1.56602 2.89715,2.50564 1.72263,0.86132 3.75846,1.33112 2.03584,0.46981 3.60187,0.46981 1.56603,0 3.75847,-0.46981 2.27074,-0.4698 4.46318,-1.48772 2.27074,-1.01792 3.60186,-2.34904 1.64433,-1.40943 2.11414,-3.60187 0.1566,-1.09622 0.1566,-1.48772 0,-1.33113 -0.54811,-2.34905 -0.86131,-1.56602 -2.66225,-2.50564 -1.56602,-0.93962 -3.75846,-1.33113 -2.11414,-0.4698 -3.83677,-0.4698 -1.72263,0 -3.99337,0.4698 -2.19244,0.46981 -4.38488,1.48773 -2.11414,0.93962 -3.68017,2.50565 -1.56603,1.48772 -2.03583,3.60186 z"
           style="font-style:normal;font-variant:normal;font-weight:normal;font-stretch:normal;font-size:78.3014px;font-family:'Conduit 2 Italics BRK';-inkscape-font-specification:'Conduit 2 Italics BRK, Normal';font-variant-ligatures:normal;font-variant-caps:normal;font-variant-numeric:normal;font-variant-east-asian:normal;fill:#6600ff;stroke-width:0.349559"
           id="path2886" />
        <path
           d="m 662.33686,686.69464 q -0.86132,0 -1.48773,-0.0783 -0.54811,-0.1566 -1.33112,-0.54811 -1.25283,-0.78301 -2.11414,-1.72263 -0.78302,-0.93962 -1.17452,-2.27074 -0.62641,-1.33113 -0.78302,-2.66225 l -0.1566,-0.86131 -0.0783,-1.09622 -0.0783,-0.93962 v -0.54811 l 4.61978,-21.53289 q 0,-0.3132 0.1566,-1.01791 0,-0.46981 0,-0.93962 0,-1.56603 -0.3132,-2.58395 -0.70472,-2.11413 -2.11414,-3.60186 -1.40943,-1.56603 -3.52356,-2.50565 -2.11414,-1.01791 -4.30658,-1.01791 -2.11414,0 -4.38488,0.70471 -2.19244,0.70471 -4.22827,2.19244 -2.03584,1.40942 -3.52357,3.28866 -1.40942,1.87923 -2.27074,3.99337 -0.3132,0.70471 -0.54811,1.80093 -0.1566,1.01792 -0.46981,2.42734 l -1.40942,6.34242 -1.48773,6.26411 -0.86131,4.14997 -0.23491,0.78302 q -0.1566,0.2349 -0.3132,1.09622 -0.31321,0.62641 -0.31321,1.09622 l -0.3132,0.78301 -0.86132,2.50564 -1.40942,2.97546 q -0.93962,1.48772 -2.03584,2.50564 -1.09622,1.01792 -2.50565,1.01792 -1.25282,-0.0783 -1.80093,-1.01792 -0.78301,-1.33112 -0.78301,-2.50564 -0.31321,-1.01792 -0.31321,-2.89715 v -0.78302 q 0,-0.70471 0.15661,-1.48772 -0.0783,-0.23491 0.0783,-0.78302 v -1.01792 l 0.1566,-0.93961 0.0783,-0.46981 6.42072,-29.91114 q 0.4698,-1.80093 1.80093,-3.99337 1.48772,-2.11414 3.44526,-3.91507 2.03584,-1.87923 4.30658,-3.05375 2.27074,-1.25282 4.07167,-1.25282 h 31.94697 q 1.72263,0 3.36696,1.09622 1.64433,1.09621 3.05375,2.89715 1.40943,1.72263 1.87924,3.60186 0.46981,1.33113 0.46981,2.42734 0,0.46981 -0.15661,1.25283 l -6.73392,31.71206 q -0.3132,1.64433 -1.48772,3.75847 -1.40943,2.11414 -2.74055,3.60187 -1.80093,1.72263 -3.68017,2.74054 -1.80093,0.93962 -3.68016,0.93962 z"
           style="font-style:normal;font-variant:normal;font-weight:normal;font-stretch:normal;font-size:78.3014px;font-family:'Conduit 2 Italics BRK';-inkscape-font-specification:'Conduit 2 Italics BRK, Normal';font-variant-ligatures:normal;font-variant-caps:normal;font-variant-numeric:normal;font-variant-east-asian:normal;fill:#6600ff;stroke-width:0.349559"
           id="path2888" />
      </g>
      <g
         aria-label="RENAISSANCE"
         transform="scale(1.3211703,0.75690467)"
         id="text2870"
         style="font-style:normal;font-variant:normal;font-weight:normal;font-stretch:normal;font-size:78.3014px;line-height:1.25;font-family:'Conduit 2 Italics BRK';-inkscape-font-specification:'Conduit 2 Italics BRK, Normal';font-variant-ligatures:normal;font-variant-caps:normal;font-variant-numeric:normal;font-variant-east-asian:normal;letter-spacing:0px;word-spacing:0px;fill:#0000d4;fill-opacity:1;stroke:none;stroke-width:0.349559">
        <path
           d="m 260.85684,793.72411 q -0.46981,2.19244 -1.56603,3.91507 -1.09621,1.72263 -2.74054,3.13206 -1.64433,1.40942 -3.36696,2.11414 -1.72264,0.70471 -3.91507,0.70471 -3.05376,0 -5.4028,-1.95754 -2.27074,-2.03583 -2.27074,-5.01129 -0.0783,-0.2349 -0.0783,-0.70471 0,-0.54811 0.1566,-1.48773 0.1566,-0.93961 0.1566,-1.33112 0,-0.31321 -0.2349,-1.48773 -0.1566,-1.25282 -1.40943,-2.42734 -1.09622,-1.17452 -2.74055,-1.80093 -1.56602,-0.70471 -2.66224,-0.86132 -1.01792,-0.1566 -1.95754,-0.3915 -1.01792,0 -1.95753,0 l -3.52357,0.3132 q -2.19244,0.39151 -3.91507,1.09622 -1.72263,0.62641 -3.28865,1.80093 -1.56603,1.17452 -2.58395,2.89716 -0.70471,1.09621 -1.17452,2.89715 l -1.40943,3.75846 q -0.54811,1.01792 -1.09622,1.87924 -0.54811,0.78301 -1.09622,1.40942 -1.40942,1.40943 -3.21035,1.40943 -1.01792,0 -1.72263,-0.70471 -0.62642,-0.70472 -0.93962,-1.80094 -0.31321,-1.09622 -0.31321,-2.03583 l -0.0783,-1.87924 q -0.0783,-0.3132 0.0783,-1.01792 -0.0783,-0.2349 0.15661,-1.25282 -0.0783,-0.54811 0.0783,-1.17452 v -0.62641 l 6.81222,-31.94697 q 0.39151,-1.17452 1.01792,-2.42734 0.3915,-0.70472 0.86131,-1.40943 1.33113,-1.95753 3.36696,-3.68016 2.03584,-1.80094 4.22828,-2.89716 2.27074,-1.17452 4.07167,-1.17452 h 23.25552 q 1.87923,0 3.75846,1.48773 1.87924,1.40942 2.81885,3.05375 1.25283,2.03584 1.72263,4.14998 0.23491,0.93961 0.23491,1.40942 0.0783,0.46981 0.0783,0.86132 0,0.70471 -0.1566,1.80093 l -2.97546,13.93765 -0.0783,1.40942 0.0783,1.80094 q 0.15661,0.3132 0.15661,1.33112 l 0.1566,1.25282 q 0.2349,0.86132 0.54811,1.40943 0.31321,0.46981 0.78301,0.70471 l 0.93962,0.46981 q 0.86132,0.2349 1.17452,0.62641 0.86132,0.86132 1.09622,1.72263 0.46981,1.09622 0.46981,2.19244 0.0783,0.2349 0.0783,0.70471 0,0.54811 -0.1566,1.64433 z m -38.36768,-26.15267 q 0,0.31321 -0.15661,1.09622 0,0.46981 0,0.93962 0,0.78301 0.0783,1.17452 0.1566,0.39151 0.4698,1.09622 0.31321,0.70471 0.93962,1.56603 0.62641,0.78301 2.03584,1.64433 1.25282,0.62641 3.05375,0.62641 1.56603,0 2.89715,-0.62641 1.40943,-0.62641 1.95754,-1.01792 0.62641,-0.39151 1.09622,-0.86132 1.40942,-1.09621 2.27074,-2.58394 0.93962,-1.33112 1.33112,-3.05376 0.15661,-1.25282 0.15661,-1.72263 0,-0.54811 -0.23491,-1.72263 -0.2349,-1.17452 -1.09622,-2.19244 -0.86131,-1.01791 -2.11414,-1.64433 -1.17452,-0.62641 -2.97545,-0.62641 -1.01792,0 -1.72263,0.15661 -0.62641,0.1566 -1.48773,0.4698 -1.56602,0.62642 -2.81885,1.64433 -1.17452,1.01792 -1.33112,1.25283 -0.1566,0.1566 -1.09622,1.33112 -0.86132,1.33112 -1.25282,3.05375 z"
           style="font-style:normal;font-variant:normal;font-weight:normal;font-stretch:normal;font-size:78.3014px;font-family:'Conduit 2 Italics BRK';-inkscape-font-specification:'Conduit 2 Italics BRK, Normal';font-variant-ligatures:normal;font-variant-caps:normal;font-variant-numeric:normal;font-variant-east-asian:normal;fill:#0000d4;stroke-width:0.349559"
           id="path2910" />
        <path
           d="m 323.9592,758.95829 q -0.62641,2.34904 -1.48772,3.68017 -0.86132,1.33112 -1.33113,1.80093 -0.3915,0.46981 -1.48772,1.25282 -1.64433,1.17452 -3.52357,1.87923 -1.87923,0.62642 -3.83676,0.62642 l -2.34905,-0.0783 -2.19244,-0.4698 -2.03583,-0.86132 q -1.01792,-0.78301 -1.40943,-1.56603 l -0.1566,-0.54811 -0.1566,-0.62641 q -0.23491,-1.64433 -1.56603,-2.50564 -1.17452,-0.93962 -2.97545,-1.33113 -1.80094,-0.46981 -3.68017,-0.46981 l -3.36696,-0.0783 -3.44526,0.23491 q -1.25282,0.1566 -2.50565,0.46981 -1.25282,0.2349 -1.87923,0.3915 -2.19244,0.70472 -3.91507,1.87924 -1.64433,1.09622 -2.03584,2.97545 -0.0783,0.39151 -0.0783,1.17452 0,0.70471 0.15661,1.25282 0.1566,0.54811 0.4698,0.86132 1.17453,1.17452 2.97546,1.64433 0.86131,0.3915 1.80093,0.54811 1.01792,0.1566 2.74055,0.3915 1.72263,0.15661 3.60186,0.70472 1.95754,0.46981 2.81885,1.40942 0.86132,0.62641 0.86132,1.80093 0,0.70472 -0.0783,1.01792 -0.62641,2.03584 -2.19244,2.97546 -1.48773,0.93961 -3.28866,1.40942 -1.72263,0.39151 -2.03584,0.46981 -0.2349,0 -2.34904,0.2349 l -4.38488,0.78302 q -2.27074,0.62641 -3.75846,1.80093 -1.40943,1.09622 -1.87924,3.13206 -0.2349,1.95753 0.93962,3.13205 1.25282,1.17452 2.97545,1.80093 1.72263,0.54811 3.99337,0.78302 l 3.36696,0.2349 h 2.81885 l 3.13206,-0.2349 3.13206,-0.70471 q 1.48772,-0.39151 2.81885,-1.40943 l 0.78301,-0.78301 0.54811,-0.78302 0.39151,-0.78301 0.62641,-0.86132 q 0.93961,-0.93961 2.11414,-1.56603 1.25282,-0.62641 2.34904,-0.86131 1.09622,-0.39151 2.42734,-0.39151 0.86132,-0.1566 2.34904,-0.1566 2.03584,0 3.68017,0.78301 1.64433,0.70472 2.74055,2.03584 1.09622,1.25282 1.33112,2.50564 0.31321,1.25283 0.31321,2.11414 0,1.01792 -0.23491,1.95754 -0.54811,2.50564 -2.27074,4.30657 -1.72263,1.72263 -3.99337,2.97546 -2.27074,1.25282 -4.93299,1.72263 -1.64433,0.39151 -2.42734,0.46981 -0.78301,0.0783 -2.11414,0.0783 h -27.01398 q -2.11414,0 -4.22828,-0.93962 -2.11413,-0.93962 -3.91507,-2.50564 -1.56602,-1.56603 -2.50564,-3.60187 -0.46981,-1.33112 -0.46981,-2.50564 0,-1.17452 0.1566,-1.80093 l 6.73392,-31.63377 q 0.46981,-1.72263 1.72263,-3.52356 1.72263,-2.11414 3.52357,-3.68017 1.87923,-1.64433 3.91507,-2.74055 2.11413,-1.09622 3.91507,-1.09622 h 32.88658 q 1.48773,0 3.28866,0.78302 1.87924,0.78301 3.05376,2.11413 0.86131,1.09622 1.17452,1.56603 0.3132,0.39151 0.62641,1.40943 0.39151,0.78301 0.39151,2.03583 0,1.01792 -0.15661,1.48773 z"
           style="font-style:normal;font-variant:normal;font-weight:normal;font-stretch:normal;font-size:78.3014px;font-family:'Conduit 2 Italics BRK';-inkscape-font-specification:'Conduit 2 Italics BRK, Normal';font-variant-ligatures:normal;font-variant-caps:normal;font-variant-numeric:normal;font-variant-east-asian:normal;fill:#0000d4;stroke-width:0.349559"
           id="path2912" />
        <path
           d="m 361.0655,803.59009 q -0.86131,0 -1.48773,-0.0783 -0.5481,-0.15661 -1.33112,-0.54811 -1.25282,-0.78302 -2.11414,-1.72263 -0.78301,-0.93962 -1.17452,-2.27074 -0.62641,-1.33113 -0.78301,-2.66225 l -0.1566,-0.86132 -0.0783,-1.09622 -0.0783,-0.93961 v -0.54811 l 4.61979,-21.53289 q 0,-0.3132 0.1566,-1.01792 0,-0.46981 0,-0.93961 0,-1.56603 -0.31321,-2.58395 -0.70471,-2.11414 -2.11414,-3.60186 -1.40942,-1.56603 -3.52356,-2.50565 -2.11414,-1.01792 -4.30658,-1.01792 -2.11413,0 -4.38487,0.70472 -2.19244,0.70471 -4.22828,2.19243 -2.03584,1.40943 -3.52356,3.28866 -1.40943,1.87924 -2.27074,3.99337 -0.31321,0.70472 -0.54811,1.80094 -0.15661,1.01792 -0.46981,2.42734 l -1.40943,6.34241 -1.48772,6.26412 -0.86132,4.14997 -0.2349,0.78301 q -0.1566,0.23491 -0.31321,1.09622 -0.3132,0.62641 -0.3132,1.09622 l -0.31321,0.78302 -0.86131,2.50564 -1.40943,2.97545 q -0.93962,1.48773 -2.03584,2.50565 -1.09622,1.01792 -2.50564,1.01792 -1.25282,-0.0783 -1.80093,-1.01792 -0.78302,-1.33112 -0.78302,-2.50565 -0.3132,-1.01791 -0.3132,-2.89715 v -0.78301 q 0,-0.70471 0.1566,-1.48773 -0.0783,-0.2349 0.0783,-0.78301 v -1.01792 l 0.1566,-0.93962 0.0783,-0.4698 6.42071,-29.91114 q 0.46981,-1.80093 1.80093,-3.99337 1.48773,-2.11414 3.44526,-3.91507 2.03584,-1.87923 4.30658,-3.05376 2.27074,-1.25282 4.07167,-1.25282 h 31.94698 q 1.72263,0 3.36696,1.09622 1.64432,1.09622 3.05375,2.89715 1.40942,1.72263 1.87923,3.60187 0.46981,1.33112 0.46981,2.42734 0,0.46981 -0.1566,1.25282 l -6.73392,31.71207 q -0.31321,1.64433 -1.48773,3.75847 -1.40942,2.11414 -2.74055,3.60186 -1.80093,1.72263 -3.68016,2.74055 -1.80093,0.93962 -3.68017,0.93962 z"
           style="font-style:normal;font-variant:normal;font-weight:normal;font-stretch:normal;font-size:78.3014px;font-family:'Conduit 2 Italics BRK';-inkscape-font-specification:'Conduit 2 Italics BRK, Normal';font-variant-ligatures:normal;font-variant-caps:normal;font-variant-numeric:normal;font-variant-east-asian:normal;fill:#0000d4;stroke-width:0.349559"
           id="path2914" />
        <path
           d="m 416.72923,803.59009 q -1.56602,0 -2.89715,-0.46981 -1.33112,-0.46981 -2.50564,-1.40943 -1.01792,-1.01791 -1.72263,-2.19243 -0.54811,-1.33113 -0.54811,-2.89716 v -0.78301 q 0,-0.78301 0.1566,-1.72263 0,-0.23491 0,-1.01792 0,-0.86131 -0.0783,-1.09622 -0.31321,-1.64433 -1.48773,-2.74055 -1.09622,-1.17452 -2.58394,-1.87923 -1.48773,-0.70471 -2.66225,-0.86132 -1.09622,-0.1566 -2.03584,-0.3915 -1.01792,0 -1.95753,0 l -3.36696,0.3132 q -1.17452,0.23491 -2.11414,0.46981 -0.93962,0.2349 -1.48773,0.39151 -1.25282,0.46981 -1.95753,0.86131 -0.62641,0.31321 -1.40943,0.86132 -1.72263,1.09622 -2.66225,2.50564 -0.93961,1.33113 -1.40942,2.97546 -0.46981,1.56602 -0.86132,2.58394 -0.3915,0.93962 -0.70471,1.64433 -0.93962,2.11414 -2.03584,3.44526 -1.33112,1.40943 -3.36696,1.40943 -1.40942,0 -2.03583,-1.17452 -0.62641,-1.25283 -0.78302,-1.95754 -0.0783,-0.78301 -0.1566,-1.40942 v -3.60187 l 0.31321,-2.58394 6.73392,-31.71207 q 0.46981,-1.64433 1.80093,-3.75847 1.48773,-2.03583 3.52356,-3.75846 2.03584,-1.80094 4.22828,-2.89716 2.19244,-1.17452 3.99337,-1.17452 h 31.94697 q 1.95754,0 3.52356,1.17452 1.87924,1.25283 3.05376,3.05376 1.25282,1.72263 1.64433,3.36696 0.46981,1.56603 0.46981,2.42734 0,0.62641 -0.15661,1.56603 l -6.57731,30.85075 q -0.23491,1.17452 -0.78302,2.50565 -0.2349,0.4698 -0.70471,1.40942 -0.78302,1.33112 -1.40943,2.19244 -0.62641,0.78301 -1.33112,1.56603 -1.64433,1.64433 -3.52356,2.81885 -1.87924,1.09622 -4.07168,1.09622 z m -26.85738,-35.86204 q -0.0783,0.3915 -0.0783,1.17452 0,1.56603 0.62641,2.50564 1.17453,1.56603 2.89716,2.50565 1.72263,0.86131 3.75846,1.33112 2.03584,0.46981 3.60187,0.46981 1.56603,0 3.75846,-0.46981 2.27075,-0.46981 4.46318,-1.48773 2.27074,-1.01791 3.60187,-2.34904 1.64433,-1.40942 2.11414,-3.60186 0.1566,-1.09622 0.1566,-1.48773 0,-1.33112 -0.54811,-2.34904 -0.86132,-1.56603 -2.66225,-2.50564 -1.56603,-0.93962 -3.75847,-1.33113 -2.11413,-0.46981 -3.83676,-0.46981 -1.72263,0 -3.99338,0.46981 -2.19243,0.46981 -4.38487,1.48773 -2.11414,0.93961 -3.68017,2.50564 -1.56603,1.48773 -2.03584,3.60187 z"
           style="font-style:normal;font-variant:normal;font-weight:normal;font-stretch:normal;font-size:78.3014px;font-family:'Conduit 2 Italics BRK';-inkscape-font-specification:'Conduit 2 Italics BRK, Normal';font-variant-ligatures:normal;font-variant-caps:normal;font-variant-numeric:normal;font-variant-east-asian:normal;fill:#0000d4;stroke-width:0.349559"
           id="path2916" />
        <path
           d="m 448.74594,749.71873 q 1.33112,0 2.50564,0.4698 0.70471,0.23491 1.09622,0.54811 1.48773,0.93962 2.34904,2.74055 0.93962,1.72263 1.09622,2.97546 0.15661,1.25282 0.15661,2.34904 0,1.17452 -0.23491,2.27074 l -6.57732,30.92905 q -0.2349,1.17452 -0.78301,2.50565 -0.2349,0.4698 -0.70471,1.40942 -0.78302,1.33112 -1.40943,2.19244 -0.62641,0.78301 -1.33112,1.56603 -1.87924,1.87923 -3.68017,2.89715 -1.72263,1.01792 -3.91507,1.01792 -2.19244,0 -3.83677,-1.25282 -1.56602,-1.25283 -2.19244,-3.05376 -0.93961,-2.03584 -0.93961,-4.07167 -0.0783,-0.46981 -0.0783,-1.33113 0,-1.56602 0.3132,-2.74054 l 6.18581,-29.20643 q 0.62641,-2.11413 1.48773,-4.14997 1.25282,-2.34904 2.66225,-3.99337 1.95753,-1.95754 3.60186,-2.89715 2.03584,-1.17452 4.22828,-1.17452 z"
           style="font-style:normal;font-variant:normal;font-weight:normal;font-stretch:normal;font-size:78.3014px;font-family:'Conduit 2 Italics BRK';-inkscape-font-specification:'Conduit 2 Italics BRK, Normal';font-variant-ligatures:normal;font-variant-caps:normal;font-variant-numeric:normal;font-variant-east-asian:normal;fill:#0000d4;stroke-width:0.349559"
           id="path2918" />
        <path
           d="m 449.50693,798.26559 q 0.62642,-1.95753 2.50565,-2.81885 1.87923,-0.93961 4.22827,-1.25282 2.42735,-0.39151 3.99338,-0.46981 1.56602,-0.1566 3.05375,-0.1566 l 6.89052,-0.46981 q 3.68017,-0.46981 6.49902,-1.33112 2.89715,-0.86132 4.77639,-2.74055 0.1566,-0.15661 0.54811,-0.70471 l 0.3915,-0.86132 q 0,-1.56603 -0.62641,-2.27074 -0.93962,-1.17452 -2.11414,-1.80093 -1.09622,-0.70472 -2.81885,-1.09622 -1.56603,-0.46981 -2.58394,-0.46981 l -5.4028,-0.23491 q -1.01792,0 -2.74055,-0.2349 -1.64433,-0.2349 -2.66225,-0.39151 -1.17452,-0.3132 -2.42734,-0.86131 -1.17452,-0.54811 -1.95753,-1.09622 -2.03584,-1.56603 -2.81886,-4.14998 l -0.62641,-2.03583 q -0.2349,-0.86132 -0.2349,-1.40943 0,-0.62641 0.0783,-0.93961 l 2.11414,-9.86598 q 0.46981,-1.72263 1.72263,-3.52356 1.72263,-2.11414 3.52356,-3.68017 1.87924,-1.64433 3.91507,-2.74055 2.11414,-1.09622 3.91507,-1.09622 h 34.06111 l 2.34904,0.31321 q 1.56603,0.3132 2.81885,0.93961 1.56603,0.62642 2.34905,1.48773 0.93961,0.86132 0.70471,2.03584 -0.31321,1.17452 -1.25282,2.03583 -0.86132,0.78302 -2.03584,1.25283 -1.01792,0.54811 -2.34904,0.78301 -1.09622,0.39151 -1.95754,0.39151 l -1.33112,0.2349 -1.64433,0.31321 -1.25282,0.1566 -0.62641,0.0783 h -23.25552 q -1.01792,0 -2.74055,0.46981 -1.64433,0.46981 -3.28866,1.25282 -1.64433,0.78302 -2.97545,1.87924 -1.25282,1.01791 -1.48773,2.19244 -0.2349,0.78301 0.0783,1.64432 l 0.86132,1.25283 1.25282,0.93961 1.48773,0.62641 1.01792,0.39151 1.25282,0.46981 1.17452,0.31321 0.62641,0.1566 h 22.081 l 1.09621,0.3132 1.64433,0.39151 q 2.66225,0.86132 4.14998,2.42734 1.56603,1.56603 2.19244,3.52357 0.86131,1.95753 0.86131,4.54148 0,2.66225 -0.54811,4.69808 -0.46981,2.03584 -1.01791,3.60187 -0.46981,1.56603 -1.17453,2.81885 -1.56602,3.05375 -3.60186,5.24619 -2.03584,2.11414 -4.85469,3.52356 -2.81885,1.33113 -6.49901,1.33113 h -26.77908 -0.78302 l -1.33112,-0.0783 q -0.39151,-0.15661 -1.33112,-0.15661 l -1.09622,-0.0783 -2.58395,-0.3132 -2.74055,-0.78302 q -1.48772,-0.62641 -2.19244,-1.56603 -0.70471,-0.93961 -0.46981,-2.34904 z"
           style="font-style:normal;font-variant:normal;font-weight:normal;font-stretch:normal;font-size:78.3014px;font-family:'Conduit 2 Italics BRK';-inkscape-font-specification:'Conduit 2 Italics BRK, Normal';font-variant-ligatures:normal;font-variant-caps:normal;font-variant-numeric:normal;font-variant-east-asian:normal;fill:#0000d4;stroke-width:0.349559"
           id="path2920" />
        <path
           d="m 505.32726,798.26559 q 0.62641,-1.95753 2.50565,-2.81885 1.87923,-0.93961 4.22827,-1.25282 2.42735,-0.39151 3.99337,-0.46981 1.56603,-0.1566 3.05376,-0.1566 l 6.89052,-0.46981 q 3.68017,-0.46981 6.49902,-1.33112 2.89715,-0.86132 4.77638,-2.74055 0.15661,-0.15661 0.54811,-0.70471 l 0.39151,-0.86132 q 0,-1.56603 -0.62641,-2.27074 -0.93962,-1.17452 -2.11414,-1.80093 -1.09622,-0.70472 -2.81885,-1.09622 -1.56603,-0.46981 -2.58395,-0.46981 l -5.40279,-0.23491 q -1.01792,0 -2.74055,-0.2349 -1.64433,-0.2349 -2.66225,-0.39151 -1.17452,-0.3132 -2.42734,-0.86131 -1.17452,-0.54811 -1.95754,-1.09622 -2.03583,-1.56603 -2.81885,-4.14998 l -0.62641,-2.03583 q -0.2349,-0.86132 -0.2349,-1.40943 0,-0.62641 0.0783,-0.93961 l 2.11414,-9.86598 q 0.4698,-1.72263 1.72263,-3.52356 1.72263,-2.11414 3.52356,-3.68017 1.87923,-1.64433 3.91507,-2.74055 2.11414,-1.09622 3.91507,-1.09622 h 34.06111 l 2.34904,0.31321 q 1.56603,0.3132 2.81885,0.93961 1.56603,0.62642 2.34904,1.48773 0.93962,0.86132 0.70472,2.03584 -0.31321,1.17452 -1.25283,2.03583 -0.86131,0.78302 -2.03583,1.25283 -1.01792,0.54811 -2.34905,0.78301 -1.09621,0.39151 -1.95753,0.39151 l -1.33112,0.2349 -1.64433,0.31321 -1.25283,0.1566 -0.62641,0.0783 h -23.25551 q -1.01792,0 -2.74055,0.46981 -1.64433,0.46981 -3.28866,1.25282 -1.64433,0.78302 -2.97545,1.87924 -1.25283,1.01791 -1.48773,2.19244 -0.2349,0.78301 0.0783,1.64432 l 0.86132,1.25283 1.25282,0.93961 1.48773,0.62641 1.01791,0.39151 1.25283,0.46981 1.17452,0.31321 0.62641,0.1566 h 22.08099 l 1.09622,0.3132 1.64433,0.39151 q 2.66225,0.86132 4.14998,2.42734 1.56602,1.56603 2.19244,3.52357 0.86131,1.95753 0.86131,4.54148 0,2.66225 -0.54811,4.69808 -0.46981,2.03584 -1.01792,3.60187 -0.46981,1.56603 -1.17452,2.81885 -1.56603,3.05375 -3.60186,5.24619 -2.03584,2.11414 -4.85469,3.52356 -2.81885,1.33113 -6.49902,1.33113 h -26.77907 -0.78302 l -1.33112,-0.0783 q -0.39151,-0.15661 -1.33113,-0.15661 l -1.09622,-0.0783 -2.58394,-0.3132 -2.74055,-0.78302 q -1.48773,-0.62641 -2.19244,-1.56603 -0.70471,-0.93961 -0.46981,-2.34904 z"
           style="font-style:normal;font-variant:normal;font-weight:normal;font-stretch:normal;font-size:78.3014px;font-family:'Conduit 2 Italics BRK';-inkscape-font-specification:'Conduit 2 Italics BRK, Normal';font-variant-ligatures:normal;font-variant-caps:normal;font-variant-numeric:normal;font-variant-east-asian:normal;fill:#0000d4;stroke-width:0.349559"
           id="path2922" />
        <path
           d="m 604.68318,803.59009 q -1.56602,0 -2.89715,-0.46981 -1.33112,-0.46981 -2.50564,-1.40943 -1.01792,-1.01791 -1.72263,-2.19243 -0.54811,-1.33113 -0.54811,-2.89716 v -0.78301 q 0,-0.78301 0.1566,-1.72263 0,-0.23491 0,-1.01792 0,-0.86131 -0.0783,-1.09622 -0.31321,-1.64433 -1.48773,-2.74055 -1.09622,-1.17452 -2.58395,-1.87923 -1.48772,-0.70471 -2.66224,-0.86132 -1.09622,-0.1566 -2.03584,-0.3915 -1.01792,0 -1.95753,0 l -3.36696,0.3132 q -1.17453,0.23491 -2.11414,0.46981 -0.93962,0.2349 -1.48773,0.39151 -1.25282,0.46981 -1.95753,0.86131 -0.62641,0.31321 -1.40943,0.86132 -1.72263,1.09622 -2.66225,2.50564 -0.93961,1.33113 -1.40942,2.97546 -0.46981,1.56602 -0.86132,2.58394 -0.3915,0.93962 -0.70471,1.64433 -0.93962,2.11414 -2.03584,3.44526 -1.33112,1.40943 -3.36696,1.40943 -1.40942,0 -2.03583,-1.17452 -0.62641,-1.25283 -0.78302,-1.95754 -0.0783,-0.78301 -0.1566,-1.40942 v -3.60187 l 0.31321,-2.58394 6.73392,-31.71207 q 0.4698,-1.64433 1.80093,-3.75847 1.48773,-2.03583 3.52356,-3.75846 2.03584,-1.80094 4.22828,-2.89716 2.19244,-1.17452 3.99337,-1.17452 h 31.94697 q 1.95753,0 3.52356,1.17452 1.87924,1.25283 3.05376,3.05376 1.25282,1.72263 1.64433,3.36696 0.4698,1.56603 0.4698,2.42734 0,0.62641 -0.1566,1.56603 l -6.57732,30.85075 q -0.2349,1.17452 -0.78301,2.50565 -0.2349,0.4698 -0.70471,1.40942 -0.78302,1.33112 -1.40943,2.19244 -0.62641,0.78301 -1.33112,1.56603 -1.64433,1.64433 -3.52356,2.81885 -1.87924,1.09622 -4.07168,1.09622 z M 577.8258,767.72805 q -0.0783,0.3915 -0.0783,1.17452 0,1.56603 0.62641,2.50564 1.17452,1.56603 2.89715,2.50565 1.72264,0.86131 3.75847,1.33112 2.03584,0.46981 3.60187,0.46981 1.56602,0 3.75846,-0.46981 2.27074,-0.46981 4.46318,-1.48773 2.27074,-1.01791 3.60187,-2.34904 1.64433,-1.40942 2.11414,-3.60186 0.1566,-1.09622 0.1566,-1.48773 0,-1.33112 -0.54811,-2.34904 -0.86132,-1.56603 -2.66225,-2.50564 -1.56603,-0.93962 -3.75847,-1.33113 -2.11413,-0.46981 -3.83676,-0.46981 -1.72264,0 -3.99338,0.46981 -2.19244,0.46981 -4.38487,1.48773 -2.11414,0.93961 -3.68017,2.50564 -1.56603,1.48773 -2.03584,3.60187 z"
           style="font-style:normal;font-variant:normal;font-weight:normal;font-stretch:normal;font-size:78.3014px;font-family:'Conduit 2 Italics BRK';-inkscape-font-specification:'Conduit 2 Italics BRK, Normal';font-variant-ligatures:normal;font-variant-caps:normal;font-variant-numeric:normal;font-variant-east-asian:normal;fill:#0000d4;stroke-width:0.349559"
           id="path2924" />
        <path
           d="m 660.6601,803.59009 q -0.86132,0 -1.48773,-0.0783 -0.54811,-0.15661 -1.33112,-0.54811 -1.25282,-0.78302 -2.11414,-1.72263 -0.78301,-0.93962 -1.17452,-2.27074 -0.62641,-1.33113 -0.78301,-2.66225 l -0.15661,-0.86132 -0.0783,-1.09622 -0.0783,-0.93961 v -0.54811 l 4.61978,-21.53289 q 0,-0.3132 0.15661,-1.01792 0,-0.46981 0,-0.93961 0,-1.56603 -0.31321,-2.58395 -0.70471,-2.11414 -2.11414,-3.60186 -1.40942,-1.56603 -3.52356,-2.50565 -2.11414,-1.01792 -4.30658,-1.01792 -2.11414,0 -4.38488,0.70472 -2.19244,0.70471 -4.22827,2.19243 -2.03584,1.40943 -3.52357,3.28866 -1.40942,1.87924 -2.27074,3.99337 -0.3132,0.70472 -0.54811,1.80094 -0.1566,1.01792 -0.4698,2.42734 l -1.40943,6.34241 -1.48773,6.26412 -0.86131,4.14997 -0.23491,0.78301 q -0.1566,0.23491 -0.3132,1.09622 -0.31321,0.62641 -0.31321,1.09622 l -0.3132,0.78302 -0.86132,2.50564 -1.40942,2.97545 q -0.93962,1.48773 -2.03584,2.50565 -1.09622,1.01792 -2.50564,1.01792 -1.25283,-0.0783 -1.80094,-1.01792 -0.78301,-1.33112 -0.78301,-2.50565 -0.31321,-1.01791 -0.31321,-2.89715 v -0.78301 q 0,-0.70471 0.15661,-1.48773 -0.0783,-0.2349 0.0783,-0.78301 v -1.01792 l 0.1566,-0.93962 0.0783,-0.4698 6.42072,-29.91114 q 0.46981,-1.80093 1.80093,-3.99337 1.48773,-2.11414 3.44526,-3.91507 2.03584,-1.87923 4.30658,-3.05376 2.27074,-1.25282 4.07167,-1.25282 h 31.94697 q 1.72263,0 3.36696,1.09622 1.64433,1.09622 3.05376,2.89715 1.40942,1.72263 1.87923,3.60187 0.46981,1.33112 0.46981,2.42734 0,0.46981 -0.1566,1.25282 l -6.73392,31.71207 q -0.31321,1.64433 -1.48773,3.75847 -1.40943,2.11414 -2.74055,3.60186 -1.80093,1.72263 -3.68017,2.74055 -1.80093,0.93962 -3.68016,0.93962 z"
           style="font-style:normal;font-variant:normal;font-weight:normal;font-stretch:normal;font-size:78.3014px;font-family:'Conduit 2 Italics BRK';-inkscape-font-specification:'Conduit 2 Italics BRK, Normal';font-variant-ligatures:normal;font-variant-caps:normal;font-variant-numeric:normal;font-variant-east-asian:normal;fill:#0000d4;stroke-width:0.349559"
           id="path2926" />
        <path
           d="m 735.27278,758.95829 q -0.93962,4.22828 -4.22828,6.73392 -3.28866,2.50565 -7.36033,2.50565 l -2.42734,-0.0783 -2.58395,-0.54811 q -1.25282,-0.4698 -2.19244,-1.17452 -1.01792,-1.01791 -1.01792,-2.03583 v -0.70472 l 0.0783,-0.78301 q -0.4698,-1.17452 -1.72263,-1.64433 -1.40942,-0.70471 -3.05375,-0.93962 -1.80093,-0.4698 -3.44526,-0.4698 l -2.66225,-0.15661 q -2.11414,0 -3.83677,0.39151 -1.64433,0.39151 -3.44526,1.17452 -3.44526,1.64433 -6.18581,5.16789 l -1.09622,1.72263 q -0.54811,0.86132 -0.70471,1.72263 l -2.81885,13.15464 v 1.80093 l 0.3915,1.64433 q 1.33113,3.75847 4.07168,5.2462 2.74055,1.48772 6.49901,1.48772 2.42735,0 5.5594,-0.39151 3.13206,-0.4698 5.6377,-1.95753 l 0.70472,-0.62641 q 0.1566,-0.1566 0.3915,-0.78302 l 0.31321,-0.70471 0.62641,-0.78301 q 2.27074,-2.03584 4.61978,-2.66225 2.34904,-0.62641 4.61978,-0.62641 2.03584,0 3.75847,0.70471 1.72263,0.62641 2.74055,1.87924 1.09622,1.25282 1.40943,2.81885 0.2349,0.70471 0.2349,1.48772 0,0.70472 -0.1566,1.25282 -0.0783,0.54811 -0.15661,1.09622 -0.62641,2.58395 -2.34904,4.46318 -1.72263,1.80094 -3.83677,2.97546 -2.03583,1.09622 -4.54148,1.72263 -2.50564,0.54811 -4.69808,0.54811 h -27.09229 q -2.42734,0 -4.77638,-1.09622 -2.34904,-1.09622 -3.83677,-2.66225 -1.48773,-1.64433 -2.19244,-4.07167 -0.3132,-1.17452 -0.3132,-2.58395 0,-1.17452 0.2349,-2.34904 l 6.10751,-28.81492 q 0.3132,-1.80093 1.80093,-4.07167 1.56603,-2.27074 3.44526,-3.99337 1.25283,-1.17452 2.11414,-1.80093 0.93962,-0.70471 2.11414,-1.33113 2.42734,-1.25282 4.22827,-1.25282 h 32.57339 q 1.64433,0 3.60186,0.78302 1.80093,0.86131 2.89715,2.03583 0.86132,1.09622 1.17452,1.56603 0.31321,0.39151 0.62641,1.33112 0.31321,0.93962 0.31321,2.03584 0,1.09622 -0.1566,1.64433 z"
           style="font-style:normal;font-variant:normal;font-weight:normal;font-stretch:normal;font-size:78.3014px;font-family:'Conduit 2 Italics BRK';-inkscape-font-specification:'Conduit 2 Italics BRK, Normal';font-variant-ligatures:normal;font-variant-caps:normal;font-variant-numeric:normal;font-variant-east-asian:normal;fill:#0000d4;stroke-width:0.349559"
           id="path2928" />
        <path
           d="m 791.01479,758.95829 q -0.62641,2.34904 -1.48773,3.68017 -0.86131,1.33112 -1.33112,1.80093 -0.39151,0.46981 -1.48773,1.25282 -1.64433,1.17452 -3.52356,1.87923 -1.87924,0.62642 -3.83677,0.62642 l -2.34904,-0.0783 -2.19244,-0.4698 -2.03584,-0.86132 q -1.01792,-0.78301 -1.40942,-1.56603 l -0.15661,-0.54811 -0.1566,-0.62641 q -0.2349,-1.64433 -1.56603,-2.50564 -1.17452,-0.93962 -2.97545,-1.33113 -1.80093,-0.46981 -3.68017,-0.46981 l -3.36696,-0.0783 -3.44526,0.23491 q -1.25282,0.1566 -2.50564,0.46981 -1.25282,0.2349 -1.87924,0.3915 -2.19243,0.70472 -3.91507,1.87924 -1.64432,1.09622 -2.03583,2.97545 -0.0783,0.39151 -0.0783,1.17452 0,0.70471 0.1566,1.25282 0.1566,0.54811 0.46981,0.86132 1.17452,1.17452 2.97545,1.64433 0.86132,0.3915 1.80093,0.54811 1.01792,0.1566 2.74055,0.3915 1.72263,0.15661 3.60187,0.70472 1.95753,0.46981 2.81885,1.40942 0.86131,0.62641 0.86131,1.80093 0,0.70472 -0.0783,1.01792 -0.62641,2.03584 -2.19244,2.97546 -1.48772,0.93961 -3.28866,1.40942 -1.72263,0.39151 -2.03583,0.46981 -0.23491,0 -2.34905,0.2349 l -4.38487,0.78302 q -2.27074,0.62641 -3.75847,1.80093 -1.40943,1.09622 -1.87923,3.13206 -0.23491,1.95753 0.93961,3.13205 1.25282,1.17452 2.97546,1.80093 1.72263,0.54811 3.99337,0.78302 l 3.36696,0.2349 h 2.81885 l 3.13205,-0.2349 3.13206,-0.70471 q 1.48773,-0.39151 2.81885,-1.40943 l 0.78301,-0.78301 0.54811,-0.78302 0.39151,-0.78301 0.62641,-0.86132 q 0.93962,-0.93961 2.11414,-1.56603 1.25282,-0.62641 2.34904,-0.86131 1.09622,-0.39151 2.42734,-0.39151 0.86132,-0.1566 2.34905,-0.1566 2.03583,0 3.68016,0.78301 1.64433,0.70472 2.74055,2.03584 1.09622,1.25282 1.33113,2.50564 0.3132,1.25283 0.3132,2.11414 0,1.01792 -0.2349,1.95754 -0.54811,2.50564 -2.27074,4.30657 -1.72263,1.72263 -3.99338,2.97546 -2.27074,1.25282 -4.93298,1.72263 -1.64433,0.39151 -2.42735,0.46981 -0.78301,0.0783 -2.11413,0.0783 h -27.01399 q -2.11413,0 -4.22827,-0.93962 -2.11414,-0.93962 -3.91507,-2.50564 -1.56603,-1.56603 -2.50565,-3.60187 -0.46981,-1.33112 -0.46981,-2.50564 0,-1.17452 0.15661,-1.80093 l 6.73392,-31.63377 q 0.46981,-1.72263 1.72263,-3.52356 1.72263,-2.11414 3.52356,-3.68017 1.87923,-1.64433 3.91507,-2.74055 2.11414,-1.09622 3.91507,-1.09622 h 32.88659 q 1.48773,0 3.28866,0.78302 1.87923,0.78301 3.05375,2.11413 0.86132,1.09622 1.17452,1.56603 0.31321,0.39151 0.62641,1.40943 0.39151,0.78301 0.39151,2.03583 0,1.01792 -0.1566,1.48773 z"
           style="font-style:normal;font-variant:normal;font-weight:normal;font-stretch:normal;font-size:78.3014px;font-family:'Conduit 2 Italics BRK';-inkscape-font-specification:'Conduit 2 Italics BRK, Normal';font-variant-ligatures:normal;font-variant-caps:normal;font-variant-numeric:normal;font-variant-east-asian:normal;fill:#0000d4;stroke-width:0.349559"
           id="path2930" />
      </g>
      <g
         aria-label="COMPUTING"
         transform="scale(1.3211703,0.75690467)"
         id="text2874"
         style="font-style:normal;font-variant:normal;font-weight:normal;font-stretch:normal;font-size:78.3014px;line-height:1.25;font-family:'Conduit 2 Italics BRK';-inkscape-font-specification:'Conduit 2 Italics BRK, Normal';font-variant-ligatures:normal;font-variant-caps:normal;font-variant-numeric:normal;font-variant-east-asian:normal;letter-spacing:0px;word-spacing:0px;fill:#d45500;fill-opacity:1;stroke:none;stroke-width:0.349559">
        <path
           d="m 304.03135,700.73649 q -0.93961,4.22827 -4.22827,6.73392 -3.28866,2.50564 -7.36033,2.50564 l -2.42735,-0.0783 -2.58394,-0.54811 q -1.25283,-0.46981 -2.19244,-1.17452 -1.01792,-1.01792 -1.01792,-2.03583 v -0.70472 l 0.0783,-0.78301 q -0.46981,-1.17452 -1.72263,-1.64433 -1.40943,-0.70471 -3.05376,-0.93962 -1.80093,-0.46981 -3.44526,-0.46981 l -2.66224,-0.1566 q -2.11414,0 -3.83677,0.39151 -1.64433,0.39151 -3.44526,1.17452 -3.44527,1.64433 -6.18582,5.16789 l -1.09621,1.72263 q -0.54811,0.86132 -0.70472,1.72263 l -2.81885,13.15464 v 1.80093 l 0.39151,1.64433 q 1.33112,3.75847 4.07167,5.24619 2.74055,1.48773 6.49902,1.48773 2.42734,0 5.5594,-0.39151 3.13205,-0.46981 5.6377,-1.95753 l 0.70471,-0.62641 q 0.1566,-0.15661 0.39151,-0.78302 l 0.3132,-0.70471 0.62641,-0.78301 q 2.27075,-2.03584 4.61979,-2.66225 2.34904,-0.62641 4.61978,-0.62641 2.03584,0 3.75847,0.70471 1.72263,0.62641 2.74055,1.87923 1.09622,1.25283 1.40942,2.81885 0.23491,0.70472 0.23491,1.48773 0,0.70471 -0.15661,1.25282 -0.0783,0.54811 -0.1566,1.09622 -0.62641,2.58395 -2.34904,4.46318 -1.72263,1.80093 -3.83677,2.97546 -2.03584,1.09622 -4.54148,1.72263 -2.50565,0.54811 -4.69809,0.54811 h -27.09228 q -2.42734,0 -4.77639,-1.09622 -2.34904,-1.09622 -3.83676,-2.66225 -1.48773,-1.64433 -2.19244,-4.07167 -0.31321,-1.17452 -0.31321,-2.58395 0,-1.17452 0.23491,-2.34904 l 6.1075,-28.81492 q 0.31321,-1.80093 1.80094,-4.07167 1.56602,-2.27074 3.44526,-3.99337 1.25282,-1.17452 2.11414,-1.80093 0.93961,-0.70472 2.11413,-1.33113 2.42735,-1.25282 4.22828,-1.25282 h 32.57338 q 1.64433,0 3.60187,0.78301 1.80093,0.86132 2.89715,2.03584 0.86131,1.09622 1.17452,1.56603 0.3132,0.39151 0.62641,1.33112 0.31321,0.93962 0.31321,2.03584 0,1.09622 -0.15661,1.64433 z"
           style="font-style:normal;font-variant:normal;font-weight:normal;font-stretch:normal;font-size:78.3014px;font-family:'Conduit 2 Italics BRK';-inkscape-font-specification:'Conduit 2 Italics BRK, Normal';font-variant-ligatures:normal;font-variant-caps:normal;font-variant-numeric:normal;font-variant-east-asian:normal;fill:#d45500;stroke-width:0.349559"
           id="path2891" />
        <path
           d="m 307.38975,745.05508 q -1.80094,-0.31321 -3.68017,-1.48773 -1.80093,-1.17452 -2.97545,-2.66224 -1.17452,-1.56603 -1.80093,-3.44527 -0.31321,-0.93961 -0.31321,-2.19243 0,-0.54811 0.1566,-1.80094 l 6.49902,-30.53754 q 0.39151,-1.17452 1.01792,-2.42735 0.3915,-0.70471 0.86131,-1.40942 1.33113,-1.95754 3.36696,-3.68017 2.03584,-1.80093 4.22828,-2.89715 2.27074,-1.17452 4.07167,-1.17452 h 31.94697 q 1.95754,0 3.75847,1.33112 1.80093,1.25283 2.74055,2.81885 0.70471,1.01792 1.09622,2.03584 0.46981,0.93962 0.70471,1.87923 0.2349,0.93962 0.2349,1.40943 0.0783,0.46981 0.0783,0.86132 0,1.01791 -0.15661,1.56602 l -6.34241,29.91114 q -0.70471,2.74055 -2.27074,4.85468 -1.95754,2.34905 -4.22828,3.91507 -2.19244,1.56603 -4.85468,2.50565 -2.58395,0.93962 -4.85469,0.93962 h -26.77908 -0.39151 l -0.78301,-0.0783 q -0.1566,-0.0783 -0.70471,-0.1566 l -0.62641,-0.0783 z m 20.67157,-43.61388 q -2.27074,0 -4.69809,0.93962 -2.34904,0.93961 -4.46318,2.42734 -2.03583,1.48773 -3.52356,3.60187 -1.01792,1.33112 -1.56603,2.74054 -0.1566,0.46981 -0.46981,1.64433 l -2.27074,10.8056 q 0,0.3132 -0.1566,0.93961 0,0.46981 0,0.93962 0,1.56603 0.31321,2.58395 0.62641,1.95753 2.03583,3.60186 1.48773,1.48773 3.36696,2.42734 1.87924,0.86132 4.30658,0.86132 3.36696,0 6.57732,-1.40943 3.21035,-1.48772 5.32449,-4.46317 l 1.48773,-1.95754 q 0.93961,-1.40943 1.17452,-2.34904 l 2.81885,-13.15464 v -0.3915 -0.70472 l -0.1566,-0.4698 v -0.39151 q -0.46981,-2.03584 -1.33113,-3.44526 -0.86131,-1.40943 -2.11413,-2.50565 -2.34905,-2.27074 -6.65562,-2.27074 z"
           style="font-style:normal;font-variant:normal;font-weight:normal;font-stretch:normal;font-size:78.3014px;font-family:'Conduit 2 Italics BRK';-inkscape-font-specification:'Conduit 2 Italics BRK, Normal';font-variant-ligatures:normal;font-variant-caps:normal;font-variant-numeric:normal;font-variant-east-asian:normal;fill:#d45500;stroke-width:0.349559"
           id="path2893" />
        <path
           d="m 396.56647,745.36829 q -1.87923,0 -3.36696,-1.09622 -1.48772,-1.09622 -2.50564,-2.81885 -0.93962,-1.80094 -1.17452,-3.68017 -0.23491,-0.93962 -0.23491,-1.72263 0,-1.09622 0.23491,-2.03584 l 4.93299,-23.25551 v -0.62641 -1.40943 -1.56603 -1.33112 -1.17452 l -0.23491,-1.48773 -0.54811,-1.17452 q -0.46981,-0.54811 -1.01792,-0.54811 -0.4698,0 -1.09622,0.46981 l -0.93961,1.01792 -0.70471,1.25282 -0.54811,1.09622 -0.46981,1.17452 -0.70472,1.40943 -0.62641,1.25282 -0.1566,0.54811 -4.85469,22.94231 q -0.0783,0.0783 -0.1566,0.2349 0,0.15661 -0.0783,0.31321 l -0.31321,1.09622 -0.3915,1.25282 -0.31321,0.86132 -0.93962,2.50564 -1.40942,2.97545 q -0.78301,1.40943 -1.95754,2.50565 -1.09621,1.01792 -2.50564,1.01792 -1.17452,-0.0783 -1.72263,-0.78302 -0.46981,-0.70471 -0.86132,-1.95753 -0.3915,-1.33113 -0.3132,-2.27074 v -1.95754 -1.25282 l 0.1566,-1.56603 q -0.0783,-0.62641 0.0783,-1.40942 l 0.0783,-0.70472 5.01129,-23.56872 v -0.54811 -1.25282 l -0.0783,-1.40943 v -1.09621 l -0.1566,-1.17453 -0.1566,-1.33112 -0.54811,-1.17452 q -0.39151,-0.46981 -0.93962,-0.46981 -0.62641,0 -1.33112,0.70471 l -1.17453,1.56603 -0.93961,1.72263 -0.54811,1.25282 -0.46981,0.93962 -0.46981,1.09622 q -0.0783,0.1566 -0.3132,1.01792 l -0.23491,0.46981 -5.08959,24.11683 -0.2349,0.62641 -0.46981,1.17452 -0.54811,1.40943 -0.39151,1.17452 -0.86131,1.87923 -1.33113,2.19244 q -0.70471,0.93962 -1.72263,1.80093 -0.93962,0.78302 -1.87923,0.78302 -1.25282,0 -1.95754,-1.25283 -0.70471,-1.25282 -0.93961,-2.42734 -0.23491,-1.17452 -0.23491,-1.87923 0,-0.70472 0,-1.48773 0,-1.64433 0.23491,-2.50564 l 7.12542,-33.4347 q 0.46981,-1.72263 1.72263,-3.52357 1.72263,-2.11413 3.52357,-3.68016 1.87923,-1.64433 3.91507,-2.74055 2.11413,-1.09622 3.91507,-1.09622 h 32.26017 q 1.01792,0 2.19244,0.70471 l 1.80093,1.01792 q 2.50565,1.64433 3.68017,4.69809 0.86132,1.72263 0.86132,3.91507 0,1.25282 -0.23491,2.42734 l -6.02921,28.1885 q -0.4698,2.11414 -1.48772,4.38488 -0.70472,1.25282 -1.40943,2.42734 -0.70471,1.09622 -1.33112,1.80094 -1.56603,1.95753 -3.68017,3.21035 -2.03583,1.25283 -4.38488,1.25283 z"
           style="font-style:normal;font-variant:normal;font-weight:normal;font-stretch:normal;font-size:78.3014px;font-family:'Conduit 2 Italics BRK';-inkscape-font-specification:'Conduit 2 Italics BRK, Normal';font-variant-ligatures:normal;font-variant-caps:normal;font-variant-numeric:normal;font-variant-east-asian:normal;fill:#d45500;stroke-width:0.349559"
           id="path2895" />
        <path
           d="m 412.8446,745.36829 q -1.33112,0 -2.03583,-1.17452 -0.39151,-0.93962 -0.54811,-1.40943 -0.15661,-0.54811 -0.39151,-1.64433 -0.2349,-1.17452 -0.2349,-2.81885 l 0.3132,-2.50564 7.12543,-33.4347 q 0.46981,-1.72263 1.72263,-3.52357 1.72263,-2.11413 3.52356,-3.68016 1.87924,-1.64433 3.91507,-2.74055 2.11414,-1.09622 3.91507,-1.09622 h 32.26018 q 1.01792,0 2.19244,0.70471 l 1.80093,1.01792 q 2.50565,1.64433 3.68017,4.69809 0.86131,1.72263 0.86131,3.91507 0,1.25282 -0.2349,2.42734 l -2.19244,10.49239 q -0.46981,2.11413 -1.56603,3.83676 -1.01792,1.87924 -2.58395,3.52357 -1.17452,1.17452 -1.87923,1.80093 -0.62641,0.54811 -1.48773,1.09622 -2.11413,1.33112 -3.75846,1.87923 l -0.93962,0.31321 -1.25282,0.3132 -1.09622,0.31321 -0.46981,0.0783 h -21.76779 l -0.62641,0.1566 -0.93962,0.31321 -1.17452,0.31321 -0.93962,0.2349 q -2.19243,0.78301 -4.46318,2.27074 -2.27074,1.40943 -3.21035,3.60186 -0.54811,1.01792 -1.01792,2.58395 -0.39151,1.56603 -0.70471,2.34904 -0.23491,0.70472 -0.70472,1.56603 -0.78301,1.87923 -2.03583,2.97545 -1.17452,1.25283 -3.05376,1.25283 z m 12.84143,-36.17525 q -0.0783,0.39151 -0.0783,1.17452 0,1.56603 0.54811,2.58395 0.93962,1.64433 2.58395,2.66224 1.64433,0.93962 3.75846,1.40943 2.11414,0.46981 3.91507,0.46981 1.64433,0 3.83677,-0.46981 2.27074,-0.46981 4.38488,-1.40943 2.19244,-1.01791 3.75847,-2.50564 1.64433,-1.56603 2.11414,-3.75847 0.0783,-0.46981 0.0783,-1.25282 0,-1.48773 -0.62641,-2.42734 -0.86132,-1.56603 -2.58395,-2.50565 -1.72263,-1.01792 -3.83677,-1.33112 -1.80093,-0.39151 -3.75847,-0.39151 l -3.91507,0.39151 q -1.48772,0.3132 -2.42734,0.62641 -0.93962,0.3132 -1.87923,0.70471 -2.03584,1.01792 -3.75847,2.42735 -1.64433,1.40942 -2.11414,3.60186 z"
           style="font-style:normal;font-variant:normal;font-weight:normal;font-stretch:normal;font-size:78.3014px;font-family:'Conduit 2 Italics BRK';-inkscape-font-specification:'Conduit 2 Italics BRK, Normal';font-variant-ligatures:normal;font-variant-caps:normal;font-variant-numeric:normal;font-variant-east-asian:normal;fill:#d45500;stroke-width:0.349559"
           id="path2897" />
        <path
           d="m 480.17524,691.26202 q 0.86131,0 1.56602,0.46981 0.46981,0.46981 0.78302,1.09622 0.39151,0.62641 0.54811,1.80093 0.1566,1.17452 0.0783,1.64433 v 1.25282 l 0.0783,1.56603 -0.0783,1.40942 v 0.70472 l -4.85469,22.6291 v 1.33113 l 0.15661,1.64432 0.4698,1.48773 0.39151,1.09622 q 1.01792,2.74055 3.52356,4.14997 2.74055,1.40943 5.5594,1.40943 2.27074,0 3.99337,-0.54811 1.80094,-0.54811 3.60187,-1.72263 1.87923,-1.17452 3.36696,-2.66225 1.48773,-1.48772 2.66225,-3.28866 l 0.62641,-1.09622 0.46981,-0.86131 4.54148,-21.53289 q 0.2349,-1.17452 0.54811,-1.95753 0.3915,-0.86132 1.01792,-2.11414 0.86131,-1.40942 1.40942,-2.19244 0.62641,-0.86131 1.40943,-1.72263 1.64433,-1.72263 3.68016,-2.81885 2.11414,-1.17452 4.14998,-1.17452 2.11413,0 3.60186,1.09622 1.48773,1.09622 2.34904,2.74055 0.46981,0.93961 0.78302,1.95753 0.3132,0.93962 0.3132,1.87924 0.0783,0.62641 0.0783,1.72263 0,1.17452 -0.2349,2.27074 l -6.42072,30.22434 q -0.70471,2.74055 -2.27074,4.85468 -1.95753,2.34905 -4.22827,3.91507 -2.19244,1.56603 -4.85469,2.50565 -2.58394,0.93962 -4.85469,0.93962 h -26.77907 q -2.19244,0 -4.14998,-0.70472 -1.87923,-0.70471 -3.28866,-1.87923 -1.48772,-1.48773 -2.42734,-2.97545 -0.86132,-1.56603 -1.25282,-3.75847 l -0.15661,-1.17452 0.0783,-1.09622 6.89052,-32.26018 0.2349,-0.54811 q 0.23491,-0.3915 0.39151,-1.17452 l 0.39151,-1.25282 q 0.2349,-0.46981 0.2349,-0.62641 0.0783,-0.23491 0.1566,-0.46981 l 0.86132,-1.95754 1.25282,-2.03583 q 0.78302,-1.01792 1.56603,-1.56603 0.86132,-0.62641 2.03584,-0.62641 z"
           style="font-style:normal;font-variant:normal;font-weight:normal;font-stretch:normal;font-size:78.3014px;font-family:'Conduit 2 Italics BRK';-inkscape-font-specification:'Conduit 2 Italics BRK, Normal';font-variant-ligatures:normal;font-variant-caps:normal;font-variant-numeric:normal;font-variant-east-asian:normal;fill:#d45500;stroke-width:0.349559"
           id="path2899" />
        <path
           d="m 529.04875,696.27331 q 0.46981,-1.33112 1.48773,-2.11414 1.01792,-0.78301 1.40943,-1.01792 0.4698,-0.2349 1.56602,-0.62641 1.48773,-0.62641 3.28866,-0.86131 1.40943,-0.31321 1.72263,-0.31321 0.39151,0 0.93962,0 h 35.70544 l 2.42734,0.31321 q 0.31321,0.0783 1.25282,0.3915 1.01792,0.23491 1.48773,0.46981 1.56603,0.70471 2.19244,1.56603 0.86132,0.93962 0.62641,2.19244 -0.3132,1.95753 -2.03584,2.89715 -1.48772,0.93962 -3.44526,1.40943 -1.09622,0.2349 -2.11413,0.3915 -1.01792,0.15661 -1.80094,0.15661 -2.19244,0.2349 -3.36696,0.70471 -1.09622,0.46981 -2.27074,1.40942 l -2.34904,2.42735 q -1.17452,1.33112 -2.03584,2.74055 -0.54811,0.93961 -0.70471,1.33112 -0.1566,0.39151 -0.3132,1.01792 l -4.54149,21.21968 q -0.4698,2.27074 -1.56602,4.38488 -1.01792,2.11413 -2.74055,4.38487 -1.64433,1.95754 -3.75847,3.28866 -2.11414,1.33113 -4.46318,1.33113 -1.87923,0 -3.36696,-1.09622 -1.48773,-1.09622 -2.50564,-2.81885 -0.93962,-1.80094 -1.17453,-3.28866 -0.1566,-1.48773 -0.1566,-1.87924 0,-1.17452 0.23491,-2.27074 l 4.69808,-22.08099 q 0,-0.31321 0.0783,-1.01792 v -1.87923 q -0.2349,-1.95754 -0.86131,-3.21036 -0.70472,-1.72263 -1.64433,-2.89715 -0.93962,-1.17452 -2.27074,-1.40943 -1.17452,-0.3915 -2.81885,-0.3915 -0.54811,-0.0783 -1.56603,-0.23491 -0.93962,-0.1566 -1.80093,-0.39151 -1.72264,-0.4698 -2.66225,-1.25282 -0.86132,-0.86131 -0.86132,-1.95753 0,-0.62641 0.0783,-1.01792 z"
           style="font-style:normal;font-variant:normal;font-weight:normal;font-stretch:normal;font-size:78.3014px;font-family:'Conduit 2 Italics BRK';-inkscape-font-specification:'Conduit 2 Italics BRK, Normal';font-variant-ligatures:normal;font-variant-caps:normal;font-variant-numeric:normal;font-variant-east-asian:normal;fill:#d45500;stroke-width:0.349559"
           id="path2901" />
        <path
           d="m 595.28318,691.49692 q 1.33113,0 2.50565,0.46981 0.70471,0.23491 1.09622,0.54811 1.48772,0.93962 2.34904,2.74055 0.93962,1.72263 1.09622,2.97545 0.1566,1.25283 0.1566,2.34905 0,1.17452 -0.2349,2.27074 l -6.57732,30.92905 q -0.2349,1.17452 -0.78301,2.50564 -0.23491,0.46981 -0.70472,1.40943 -0.78301,1.33112 -1.40942,2.19244 -0.62641,0.78301 -1.33113,1.56603 -1.87923,1.87923 -3.68016,2.89715 -1.72263,1.01792 -3.91507,1.01792 -2.19244,0 -3.83677,-1.25283 -1.56603,-1.25282 -2.19244,-3.05375 -0.93962,-2.03584 -0.93962,-4.07167 -0.0783,-0.46981 -0.0783,-1.33113 0,-1.56603 0.31321,-2.74055 l 6.18581,-29.20642 q 0.62641,-2.11414 1.48773,-4.14997 1.25282,-2.34904 2.66224,-3.99337 1.95754,-1.95754 3.60187,-2.89716 2.03583,-1.17452 4.22827,-1.17452 z"
           style="font-style:normal;font-variant:normal;font-weight:normal;font-stretch:normal;font-size:78.3014px;font-family:'Conduit 2 Italics BRK';-inkscape-font-specification:'Conduit 2 Italics BRK, Normal';font-variant-ligatures:normal;font-variant-caps:normal;font-variant-numeric:normal;font-variant-east-asian:normal;fill:#d45500;stroke-width:0.349559"
           id="path2903" />
        <path
           d="m 639.73636,745.36829 q -0.86131,0 -1.48772,-0.0783 -0.54811,-0.1566 -1.33113,-0.54811 -1.25282,-0.78301 -2.11414,-1.72263 -0.78301,-0.93961 -1.17452,-2.27074 -0.62641,-1.33112 -0.78301,-2.66224 l -0.1566,-0.86132 -0.0783,-1.09622 -0.0783,-0.93962 V 734.641 l 4.61979,-21.53288 q 0,-0.31321 0.1566,-1.01792 0,-0.46981 0,-0.93962 0,-1.56602 -0.31321,-2.58394 -0.70471,-2.11414 -2.11413,-3.60187 -1.40943,-1.56602 -3.52357,-2.50564 -2.11414,-1.01792 -4.30657,-1.01792 -2.11414,0 -4.38488,0.70471 -2.19244,0.70472 -4.22828,2.19244 -2.03584,1.40943 -3.52356,3.28866 -1.40943,1.87924 -2.27074,3.99337 -0.31321,0.70472 -0.54811,1.80094 -0.1566,1.01791 -0.46981,2.42734 l -1.40943,6.34241 -1.48772,6.26411 -0.86132,4.14998 -0.2349,0.78301 q -0.1566,0.23491 -0.31321,1.09622 -0.3132,0.62641 -0.3132,1.09622 l -0.31321,0.78302 -0.86131,2.50564 -1.40943,2.97545 q -0.93962,1.48773 -2.03584,2.50565 -1.09622,1.01792 -2.50564,1.01792 -1.25282,-0.0783 -1.80093,-1.01792 -0.78302,-1.33113 -0.78302,-2.50565 -0.3132,-1.01792 -0.3132,-2.89715 v -0.78301 q 0,-0.70472 0.1566,-1.48773 -0.0783,-0.2349 0.0783,-0.78301 v -1.01792 l 0.1566,-0.93962 0.0783,-0.46981 6.42071,-29.91113 q 0.46981,-1.80093 1.80093,-3.99337 1.48773,-2.11414 3.44526,-3.91507 2.03584,-1.87924 4.30658,-3.05376 2.27074,-1.25282 4.07167,-1.25282 h 31.94698 q 1.72263,0 3.36696,1.09622 1.64432,1.09622 3.05375,2.89715 1.40943,1.72263 1.87923,3.60187 0.46981,1.33112 0.46981,2.42734 0,0.46981 -0.1566,1.25282 l -6.73392,31.71207 q -0.31321,1.64433 -1.48773,3.75847 -1.40942,2.11413 -2.74055,3.60186 -1.80093,1.72263 -3.68016,2.74055 -1.80093,0.93962 -3.68017,0.93962 z"
           style="font-style:normal;font-variant:normal;font-weight:normal;font-stretch:normal;font-size:78.3014px;font-family:'Conduit 2 Italics BRK';-inkscape-font-specification:'Conduit 2 Italics BRK, Normal';font-variant-ligatures:normal;font-variant-caps:normal;font-variant-numeric:normal;font-variant-east-asian:normal;fill:#d45500;stroke-width:0.349559"
           id="path2905" />
        <path
           d="m 714.42734,700.57989 q -0.78301,2.50564 -1.64433,3.83676 -0.78301,1.33113 -1.25282,1.80094 -0.39151,0.4698 -1.48773,1.25282 -1.64433,1.17452 -3.52356,1.87923 -1.33112,0.46981 -1.95753,0.54811 -0.62642,0.0783 -2.03584,0.0783 l -2.42734,-0.0783 -2.34905,-0.54811 q -1.48772,-0.54811 -2.03583,-1.09622 -0.93962,-0.70471 -1.17452,-1.80093 -0.0783,-0.0783 -0.15661,-0.3132 0,-0.23491 0,-0.54811 0,-1.56603 -1.33112,-2.27075 -1.25282,-0.86131 -2.97545,-1.25282 -1.72263,-0.46981 -3.36696,-0.46981 l -3.05376,-0.1566 -1.48772,0.0783 h -1.48773 q -1.95754,0.46981 -4.14998,1.40943 -2.27074,1.17452 -3.91507,2.50564 -1.72263,1.64433 -3.05375,3.44526 -1.25282,1.72263 -1.72263,3.91507 l -2.27074,10.8056 q 0,0.3132 -0.1566,1.09622 0,0.46981 0,0.93961 0,0.70472 0.1566,1.95754 0.54811,1.95753 1.64433,3.44526 1.09622,1.40943 2.81885,2.42734 1.80093,1.01792 3.52356,1.40943 l 1.48773,0.0783 h 1.48772 1.64433 l 1.25283,-0.0783 0.46981,-0.0783 q 0.3132,-0.15661 0.86131,-0.15661 l 1.17452,-0.1566 0.86132,-0.1566 1.40942,-0.31321 1.87924,-0.54811 q 1.17452,-0.3915 1.64432,-0.78301 0.86132,-0.62641 0.93962,-1.25282 0,-1.56603 -0.86131,-2.11414 -1.09622,-0.78301 -2.97546,-1.01792 -1.09622,-0.2349 -2.11413,-0.39151 -0.93962,-0.1566 -1.87924,-0.1566 -2.19244,-0.2349 -3.99337,-0.70471 -1.87923,-0.62641 -2.81885,-1.40943 -0.86132,-0.78301 -0.86132,-1.87923 0,-0.62641 0.0783,-1.01792 0.4698,-1.48772 1.64433,-2.42734 1.17452,-0.93962 2.66224,-1.40943 0.70472,-0.3132 1.64433,-0.54811 0.93962,-0.2349 1.40943,-0.3132 0.46981,-0.0783 1.33112,-0.31321 0.70471,0 1.40943,0 h 16.28669 q 0.86131,0 1.72263,0.46981 l 1.56603,0.70471 q 1.48772,0.78302 2.74055,2.11414 1.09621,1.33112 1.72263,3.13206 0.70471,1.72263 0.70471,3.52356 0.0783,0.31321 0.0783,0.93962 0,0.86131 -0.1566,1.48772 -0.0783,0.62641 -0.15661,1.33113 -0.78301,3.05375 -2.27074,5.40279 -1.72263,2.66225 -3.91507,4.46318 -2.11413,1.80094 -4.85468,2.97546 -2.66225,1.09622 -5.6377,1.09622 h -26.77908 q -2.34904,0 -4.46318,-0.93962 -2.11414,-0.93962 -3.91507,-2.50565 -1.56603,-1.56602 -2.42735,-3.75846 -0.4698,-1.33113 -0.4698,-2.74055 0,-1.25282 0.1566,-1.95754 l 6.49902,-30.53754 q 0.4698,-1.64433 1.80093,-3.75847 1.64433,-2.11414 3.52356,-3.75847 1.95754,-1.72263 4.22828,-2.89715 2.27074,-1.17452 3.99337,-1.17452 h 32.57338 q 1.48773,0 3.44526,0.78301 1.80093,0.86132 2.97545,2.19244 1.25283,1.33113 1.72264,2.66225 0.5481,1.25282 0.5481,2.27074 0,0.39151 -0.1566,1.33113 z"
           style="font-style:normal;font-variant:normal;font-weight:normal;font-stretch:normal;font-size:78.3014px;font-family:'Conduit 2 Italics BRK';-inkscape-font-specification:'Conduit 2 Italics BRK, Normal';font-variant-ligatures:normal;font-variant-caps:normal;font-variant-numeric:normal;font-variant-east-asian:normal;fill:#d45500;stroke-width:0.349559"
           id="path2907" />
      </g>
    </g>
  </g>
  <script
     id="mesh_polyfill"
     type="text/javascript">
!function(){const t=&quot;http://www.w3.org/2000/svg&quot;,e=&quot;http://www.w3.org/1999/xlink&quot;,s=&quot;http://www.w3.org/1999/xhtml&quot;,r=2;if(document.createElementNS(t,&quot;meshgradient&quot;).x)return;const n=(t,e,s,r)=&gt;{let n=new x(.5*(e.x+s.x),.5*(e.y+s.y)),o=new x(.5*(t.x+e.x),.5*(t.y+e.y)),i=new x(.5*(s.x+r.x),.5*(s.y+r.y)),a=new x(.5*(n.x+o.x),.5*(n.y+o.y)),h=new x(.5*(n.x+i.x),.5*(n.y+i.y)),l=new x(.5*(a.x+h.x),.5*(a.y+h.y));return[[t,o,a,l],[l,h,i,r]]},o=t=&gt;{let e=t[0].distSquared(t[1]),s=t[2].distSquared(t[3]),r=.25*t[0].distSquared(t[2]),n=.25*t[1].distSquared(t[3]),o=e&gt;s?e:s,i=r&gt;n?r:n;return 18*(o&gt;i?o:i)},i=(t,e)=&gt;Math.sqrt(t.distSquared(e)),a=(t,e)=&gt;t.scale(2/3).add(e.scale(1/3)),h=t=&gt;{let e,s,r,n,o,i,a,h=new g;return t.match(/(\w+\(\s*[^)]+\))+/g).forEach(t=&gt;{let l=t.match(/[\w.-]+/g),d=l.shift();switch(d){case&quot;translate&quot;:2===l.length?e=new g(1,0,0,1,l[0],l[1]):(console.error(&quot;mesh.js: translate does not have 2 arguments!&quot;),e=new g(1,0,0,1,0,0)),h=h.append(e);break;case&quot;scale&quot;:1===l.length?s=new g(l[0],0,0,l[0],0,0):2===l.length?s=new g(l[0],0,0,l[1],0,0):(console.error(&quot;mesh.js: scale does not have 1 or 2 arguments!&quot;),s=new g(1,0,0,1,0,0)),h=h.append(s);break;case&quot;rotate&quot;:if(3===l.length&amp;&amp;(e=new g(1,0,0,1,l[1],l[2]),h=h.append(e)),l[0]){r=l[0]*Math.PI/180;let t=Math.cos(r),e=Math.sin(r);Math.abs(t)&lt;1e-16&amp;&amp;(t=0),Math.abs(e)&lt;1e-16&amp;&amp;(e=0),a=new g(t,e,-e,t,0,0),h=h.append(a)}else console.error(&quot;math.js: No argument to rotate transform!&quot;);3===l.length&amp;&amp;(e=new g(1,0,0,1,-l[1],-l[2]),h=h.append(e));break;case&quot;skewX&quot;:l[0]?(r=l[0]*Math.PI/180,n=Math.tan(r),o=new g(1,0,n,1,0,0),h=h.append(o)):console.error(&quot;math.js: No argument to skewX transform!&quot;);break;case&quot;skewY&quot;:l[0]?(r=l[0]*Math.PI/180,n=Math.tan(r),i=new g(1,n,0,1,0,0),h=h.append(i)):console.error(&quot;math.js: No argument to skewY transform!&quot;);break;case&quot;matrix&quot;:6===l.length?h=h.append(new g(...l)):console.error(&quot;math.js: Incorrect number of arguments for matrix!&quot;);break;default:console.error(&quot;mesh.js: Unhandled transform type: &quot;+d)}}),h},l=t=&gt;{let e=[],s=t.split(/[ ,]+/);for(let t=0,r=s.length-1;t&lt;r;t+=2)e.push(new x(parseFloat(s[t]),parseFloat(s[t+1])));return e},d=(t,e)=&gt;{for(let s in e)t.setAttribute(s,e[s])},c=(t,e,s,r,n)=&gt;{let o,i,a=[0,0,0,0];for(let h=0;h&lt;3;++h)e[h]&lt;t[h]&amp;&amp;e[h]&lt;s[h]||t[h]&lt;e[h]&amp;&amp;s[h]&lt;e[h]?a[h]=0:(a[h]=.5*((e[h]-t[h])/r+(s[h]-e[h])/n),o=Math.abs(3*(e[h]-t[h])/r),i=Math.abs(3*(s[h]-e[h])/n),a[h]&gt;o?a[h]=o:a[h]&gt;i&amp;&amp;(a[h]=i));return a},u=[[1,0,0,0,0,0,0,0,0,0,0,0,0,0,0,0],[0,0,0,0,1,0,0,0,0,0,0,0,0,0,0,0],[-3,3,0,0,-2,-1,0,0,0,0,0,0,0,0,0,0],[2,-2,0,0,1,1,0,0,0,0,0,0,0,0,0,0],[0,0,0,0,0,0,0,0,1,0,0,0,0,0,0,0],[0,0,0,0,0,0,0,0,0,0,0,0,1,0,0,0],[0,0,0,0,0,0,0,0,-3,3,0,0,-2,-1,0,0],[0,0,0,0,0,0,0,0,2,-2,0,0,1,1,0,0],[-3,0,3,0,0,0,0,0,-2,0,-1,0,0,0,0,0],[0,0,0,0,-3,0,3,0,0,0,0,0,-2,0,-1,0],[9,-9,-9,9,6,3,-6,-3,6,-6,3,-3,4,2,2,1],[-6,6,6,-6,-3,-3,3,3,-4,4,-2,2,-2,-2,-1,-1],[2,0,-2,0,0,0,0,0,1,0,1,0,0,0,0,0],[0,0,0,0,2,0,-2,0,0,0,0,0,1,0,1,0],[-6,6,6,-6,-4,-2,4,2,-3,3,-3,3,-2,-1,-2,-1],[4,-4,-4,4,2,2,-2,-2,2,-2,2,-2,1,1,1,1]],f=t=&gt;{let e=[];for(let s=0;s&lt;16;++s){e[s]=0;for(let r=0;r&lt;16;++r)e[s]+=u[s][r]*t[r]}return e},p=(t,e,s)=&gt;{const r=e*e,n=s*s,o=e*e*e,i=s*s*s;return t[0]+t[1]*e+t[2]*r+t[3]*o+t[4]*s+t[5]*s*e+t[6]*s*r+t[7]*s*o+t[8]*n+t[9]*n*e+t[10]*n*r+t[11]*n*o+t[12]*i+t[13]*i*e+t[14]*i*r+t[15]*i*o},y=t=&gt;{let e=[],s=[],r=[];for(let s=0;s&lt;4;++s)e[s]=[],e[s][0]=n(t[0][s],t[1][s],t[2][s],t[3][s]),e[s][1]=[],e[s][1].push(...n(...e[s][0][0])),e[s][1].push(...n(...e[s][0][1])),e[s][2]=[],e[s][2].push(...n(...e[s][1][0])),e[s][2].push(...n(...e[s][1][1])),e[s][2].push(...n(...e[s][1][2])),e[s][2].push(...n(...e[s][1][3]));for(let t=0;t&lt;8;++t){s[t]=[];for(let r=0;r&lt;4;++r)s[t][r]=[],s[t][r][0]=n(e[0][2][t][r],e[1][2][t][r],e[2][2][t][r],e[3][2][t][r]),s[t][r][1]=[],s[t][r][1].push(...n(...s[t][r][0][0])),s[t][r][1].push(...n(...s[t][r][0][1])),s[t][r][2]=[],s[t][r][2].push(...n(...s[t][r][1][0])),s[t][r][2].push(...n(...s[t][r][1][1])),s[t][r][2].push(...n(...s[t][r][1][2])),s[t][r][2].push(...n(...s[t][r][1][3]))}for(let t=0;t&lt;8;++t){r[t]=[];for(let e=0;e&lt;8;++e)r[t][e]=[],r[t][e][0]=s[t][0][2][e],r[t][e][1]=s[t][1][2][e],r[t][e][2]=s[t][2][2][e],r[t][e][3]=s[t][3][2][e]}return r};class x{constructor(t,e){this.x=t||0,this.y=e||0}toString(){return`(x=${this.x}, y=${this.y})`}clone(){return new x(this.x,this.y)}add(t){return new x(this.x+t.x,this.y+t.y)}scale(t){return void 0===t.x?new x(this.x*t,this.y*t):new x(this.x*t.x,this.y*t.y)}distSquared(t){let e=this.x-t.x,s=this.y-t.y;return e*e+s*s}transform(t){let e=this.x*t.a+this.y*t.c+t.e,s=this.x*t.b+this.y*t.d+t.f;return new x(e,s)}}class g{constructor(t,e,s,r,n,o){void 0===t?(this.a=1,this.b=0,this.c=0,this.d=1,this.e=0,this.f=0):(this.a=t,this.b=e,this.c=s,this.d=r,this.e=n,this.f=o)}toString(){return`affine: ${this.a} ${this.c} ${this.e} \n       ${this.b} ${this.d} ${this.f}`}append(t){t instanceof g||console.error(&quot;mesh.js: argument to Affine.append is not affine!&quot;);let e=this.a*t.a+this.c*t.b,s=this.b*t.a+this.d*t.b,r=this.a*t.c+this.c*t.d,n=this.b*t.c+this.d*t.d,o=this.a*t.e+this.c*t.f+this.e,i=this.b*t.e+this.d*t.f+this.f;return new g(e,s,r,n,o,i)}}class w{constructor(t,e){this.nodes=t,this.colors=e}paintCurve(t,e){if(o(this.nodes)&gt;r){const s=n(...this.nodes);let r=[[],[]],o=[[],[]];for(let t=0;t&lt;4;++t)r[0][t]=this.colors[0][t],r[1][t]=(this.colors[0][t]+this.colors[1][t])/2,o[0][t]=r[1][t],o[1][t]=this.colors[1][t];let i=new w(s[0],r),a=new w(s[1],o);i.paintCurve(t,e),a.paintCurve(t,e)}else{let s=Math.round(this.nodes[0].x);if(s&gt;=0&amp;&amp;s&lt;e){let r=4*(~~this.nodes[0].y*e+s);t[r]=Math.round(this.colors[0][0]),t[r+1]=Math.round(this.colors[0][1]),t[r+2]=Math.round(this.colors[0][2]),t[r+3]=Math.round(this.colors[0][3])}}}}class m{constructor(t,e){this.nodes=t,this.colors=e}split(){let t=[[],[],[],[]],e=[[],[],[],[]],s=[[[],[]],[[],[]]],r=[[[],[]],[[],[]]];for(let s=0;s&lt;4;++s){const r=n(this.nodes[0][s],this.nodes[1][s],this.nodes[2][s],this.nodes[3][s]);t[0][s]=r[0][0],t[1][s]=r[0][1],t[2][s]=r[0][2],t[3][s]=r[0][3],e[0][s]=r[1][0],e[1][s]=r[1][1],e[2][s]=r[1][2],e[3][s]=r[1][3]}for(let t=0;t&lt;4;++t)s[0][0][t]=this.colors[0][0][t],s[0][1][t]=this.colors[0][1][t],s[1][0][t]=(this.colors[0][0][t]+this.colors[1][0][t])/2,s[1][1][t]=(this.colors[0][1][t]+this.colors[1][1][t])/2,r[0][0][t]=s[1][0][t],r[0][1][t]=s[1][1][t],r[1][0][t]=this.colors[1][0][t],r[1][1][t]=this.colors[1][1][t];return[new m(t,s),new m(e,r)]}paint(t,e){let s,n=!1;for(let t=0;t&lt;4;++t)if((s=o([this.nodes[0][t],this.nodes[1][t],this.nodes[2][t],this.nodes[3][t]]))&gt;r){n=!0;break}if(n){let s=this.split();s[0].paint(t,e),s[1].paint(t,e)}else{new w([...this.nodes[0]],[...this.colors[0]]).paintCurve(t,e)}}}class b{constructor(t){this.readMesh(t),this.type=t.getAttribute(&quot;type&quot;)||&quot;bilinear&quot;}readMesh(t){let e=[[]],s=[[]],r=Number(t.getAttribute(&quot;x&quot;)),n=Number(t.getAttribute(&quot;y&quot;));e[0][0]=new x(r,n);let o=t.children;for(let t=0,r=o.length;t&lt;r;++t){e[3*t+1]=[],e[3*t+2]=[],e[3*t+3]=[],s[t+1]=[];let r=o[t].children;for(let n=0,o=r.length;n&lt;o;++n){let o=r[n].children;for(let r=0,i=o.length;r&lt;i;++r){let i=r;0!==t&amp;&amp;++i;let h,d=o[r].getAttribute(&quot;path&quot;),c=&quot;l&quot;;null!=d&amp;&amp;(c=(h=d.match(/\s*([lLcC])\s*(.*)/))[1]);let u=l(h[2]);switch(c){case&quot;l&quot;:0===i?(e[3*t][3*n+3]=u[0].add(e[3*t][3*n]),e[3*t][3*n+1]=a(e[3*t][3*n],e[3*t][3*n+3]),e[3*t][3*n+2]=a(e[3*t][3*n+3],e[3*t][3*n])):1===i?(e[3*t+3][3*n+3]=u[0].add(e[3*t][3*n+3]),e[3*t+1][3*n+3]=a(e[3*t][3*n+3],e[3*t+3][3*n+3]),e[3*t+2][3*n+3]=a(e[3*t+3][3*n+3],e[3*t][3*n+3])):2===i?(0===n&amp;&amp;(e[3*t+3][3*n+0]=u[0].add(e[3*t+3][3*n+3])),e[3*t+3][3*n+1]=a(e[3*t+3][3*n],e[3*t+3][3*n+3]),e[3*t+3][3*n+2]=a(e[3*t+3][3*n+3],e[3*t+3][3*n])):(e[3*t+1][3*n]=a(e[3*t][3*n],e[3*t+3][3*n]),e[3*t+2][3*n]=a(e[3*t+3][3*n],e[3*t][3*n]));break;case&quot;L&quot;:0===i?(e[3*t][3*n+3]=u[0],e[3*t][3*n+1]=a(e[3*t][3*n],e[3*t][3*n+3]),e[3*t][3*n+2]=a(e[3*t][3*n+3],e[3*t][3*n])):1===i?(e[3*t+3][3*n+3]=u[0],e[3*t+1][3*n+3]=a(e[3*t][3*n+3],e[3*t+3][3*n+3]),e[3*t+2][3*n+3]=a(e[3*t+3][3*n+3],e[3*t][3*n+3])):2===i?(0===n&amp;&amp;(e[3*t+3][3*n+0]=u[0]),e[3*t+3][3*n+1]=a(e[3*t+3][3*n],e[3*t+3][3*n+3]),e[3*t+3][3*n+2]=a(e[3*t+3][3*n+3],e[3*t+3][3*n])):(e[3*t+1][3*n]=a(e[3*t][3*n],e[3*t+3][3*n]),e[3*t+2][3*n]=a(e[3*t+3][3*n],e[3*t][3*n]));break;case&quot;c&quot;:0===i?(e[3*t][3*n+1]=u[0].add(e[3*t][3*n]),e[3*t][3*n+2]=u[1].add(e[3*t][3*n]),e[3*t][3*n+3]=u[2].add(e[3*t][3*n])):1===i?(e[3*t+1][3*n+3]=u[0].add(e[3*t][3*n+3]),e[3*t+2][3*n+3]=u[1].add(e[3*t][3*n+3]),e[3*t+3][3*n+3]=u[2].add(e[3*t][3*n+3])):2===i?(e[3*t+3][3*n+2]=u[0].add(e[3*t+3][3*n+3]),e[3*t+3][3*n+1]=u[1].add(e[3*t+3][3*n+3]),0===n&amp;&amp;(e[3*t+3][3*n+0]=u[2].add(e[3*t+3][3*n+3]))):(e[3*t+2][3*n]=u[0].add(e[3*t+3][3*n]),e[3*t+1][3*n]=u[1].add(e[3*t+3][3*n]));break;case&quot;C&quot;:0===i?(e[3*t][3*n+1]=u[0],e[3*t][3*n+2]=u[1],e[3*t][3*n+3]=u[2]):1===i?(e[3*t+1][3*n+3]=u[0],e[3*t+2][3*n+3]=u[1],e[3*t+3][3*n+3]=u[2]):2===i?(e[3*t+3][3*n+2]=u[0],e[3*t+3][3*n+1]=u[1],0===n&amp;&amp;(e[3*t+3][3*n+0]=u[2])):(e[3*t+2][3*n]=u[0],e[3*t+1][3*n]=u[1]);break;default:console.error(&quot;mesh.js: &quot;+c+&quot; invalid path type.&quot;)}if(0===t&amp;&amp;0===n||r&gt;0){let e=window.getComputedStyle(o[r]).stopColor.match(/^rgb\s*\(\s*(\d+)\s*,\s*(\d+)\s*,\s*(\d+)\s*\)$/i),a=window.getComputedStyle(o[r]).stopOpacity,h=255;a&amp;&amp;(h=Math.floor(255*a)),e&amp;&amp;(0===i?(s[t][n]=[],s[t][n][0]=Math.floor(e[1]),s[t][n][1]=Math.floor(e[2]),s[t][n][2]=Math.floor(e[3]),s[t][n][3]=h):1===i?(s[t][n+1]=[],s[t][n+1][0]=Math.floor(e[1]),s[t][n+1][1]=Math.floor(e[2]),s[t][n+1][2]=Math.floor(e[3]),s[t][n+1][3]=h):2===i?(s[t+1][n+1]=[],s[t+1][n+1][0]=Math.floor(e[1]),s[t+1][n+1][1]=Math.floor(e[2]),s[t+1][n+1][2]=Math.floor(e[3]),s[t+1][n+1][3]=h):3===i&amp;&amp;(s[t+1][n]=[],s[t+1][n][0]=Math.floor(e[1]),s[t+1][n][1]=Math.floor(e[2]),s[t+1][n][2]=Math.floor(e[3]),s[t+1][n][3]=h))}}e[3*t+1][3*n+1]=new x,e[3*t+1][3*n+2]=new x,e[3*t+2][3*n+1]=new x,e[3*t+2][3*n+2]=new x,e[3*t+1][3*n+1].x=(-4*e[3*t][3*n].x+6*(e[3*t][3*n+1].x+e[3*t+1][3*n].x)+-2*(e[3*t][3*n+3].x+e[3*t+3][3*n].x)+3*(e[3*t+3][3*n+1].x+e[3*t+1][3*n+3].x)+-1*e[3*t+3][3*n+3].x)/9,e[3*t+1][3*n+2].x=(-4*e[3*t][3*n+3].x+6*(e[3*t][3*n+2].x+e[3*t+1][3*n+3].x)+-2*(e[3*t][3*n].x+e[3*t+3][3*n+3].x)+3*(e[3*t+3][3*n+2].x+e[3*t+1][3*n].x)+-1*e[3*t+3][3*n].x)/9,e[3*t+2][3*n+1].x=(-4*e[3*t+3][3*n].x+6*(e[3*t+3][3*n+1].x+e[3*t+2][3*n].x)+-2*(e[3*t+3][3*n+3].x+e[3*t][3*n].x)+3*(e[3*t][3*n+1].x+e[3*t+2][3*n+3].x)+-1*e[3*t][3*n+3].x)/9,e[3*t+2][3*n+2].x=(-4*e[3*t+3][3*n+3].x+6*(e[3*t+3][3*n+2].x+e[3*t+2][3*n+3].x)+-2*(e[3*t+3][3*n].x+e[3*t][3*n+3].x)+3*(e[3*t][3*n+2].x+e[3*t+2][3*n].x)+-1*e[3*t][3*n].x)/9,e[3*t+1][3*n+1].y=(-4*e[3*t][3*n].y+6*(e[3*t][3*n+1].y+e[3*t+1][3*n].y)+-2*(e[3*t][3*n+3].y+e[3*t+3][3*n].y)+3*(e[3*t+3][3*n+1].y+e[3*t+1][3*n+3].y)+-1*e[3*t+3][3*n+3].y)/9,e[3*t+1][3*n+2].y=(-4*e[3*t][3*n+3].y+6*(e[3*t][3*n+2].y+e[3*t+1][3*n+3].y)+-2*(e[3*t][3*n].y+e[3*t+3][3*n+3].y)+3*(e[3*t+3][3*n+2].y+e[3*t+1][3*n].y)+-1*e[3*t+3][3*n].y)/9,e[3*t+2][3*n+1].y=(-4*e[3*t+3][3*n].y+6*(e[3*t+3][3*n+1].y+e[3*t+2][3*n].y)+-2*(e[3*t+3][3*n+3].y+e[3*t][3*n].y)+3*(e[3*t][3*n+1].y+e[3*t+2][3*n+3].y)+-1*e[3*t][3*n+3].y)/9,e[3*t+2][3*n+2].y=(-4*e[3*t+3][3*n+3].y+6*(e[3*t+3][3*n+2].y+e[3*t+2][3*n+3].y)+-2*(e[3*t+3][3*n].y+e[3*t][3*n+3].y)+3*(e[3*t][3*n+2].y+e[3*t+2][3*n].y)+-1*e[3*t][3*n].y)/9}}this.nodes=e,this.colors=s}paintMesh(t,e){let s=(this.nodes.length-1)/3,r=(this.nodes[0].length-1)/3;if(&quot;bilinear&quot;===this.type||s&lt;2||r&lt;2){let n;for(let o=0;o&lt;s;++o)for(let s=0;s&lt;r;++s){let r=[];for(let t=3*o,e=3*o+4;t&lt;e;++t)r.push(this.nodes[t].slice(3*s,3*s+4));let i=[];i.push(this.colors[o].slice(s,s+2)),i.push(this.colors[o+1].slice(s,s+2)),(n=new m(r,i)).paint(t,e)}}else{let n,o,a,h,l,d,u;const x=s,g=r;s++,r++;let w=new Array(s);for(let t=0;t&lt;s;++t){w[t]=new Array(r);for(let e=0;e&lt;r;++e)w[t][e]=[],w[t][e][0]=this.nodes[3*t][3*e],w[t][e][1]=this.colors[t][e]}for(let t=0;t&lt;s;++t)for(let e=0;e&lt;r;++e)0!==t&amp;&amp;t!==x&amp;&amp;(n=i(w[t-1][e][0],w[t][e][0]),o=i(w[t+1][e][0],w[t][e][0]),w[t][e][2]=c(w[t-1][e][1],w[t][e][1],w[t+1][e][1],n,o)),0!==e&amp;&amp;e!==g&amp;&amp;(n=i(w[t][e-1][0],w[t][e][0]),o=i(w[t][e+1][0],w[t][e][0]),w[t][e][3]=c(w[t][e-1][1],w[t][e][1],w[t][e+1][1],n,o));for(let t=0;t&lt;r;++t){w[0][t][2]=[],w[x][t][2]=[];for(let e=0;e&lt;4;++e)n=i(w[1][t][0],w[0][t][0]),o=i(w[x][t][0],w[x-1][t][0]),w[0][t][2][e]=n&gt;0?2*(w[1][t][1][e]-w[0][t][1][e])/n-w[1][t][2][e]:0,w[x][t][2][e]=o&gt;0?2*(w[x][t][1][e]-w[x-1][t][1][e])/o-w[x-1][t][2][e]:0}for(let t=0;t&lt;s;++t){w[t][0][3]=[],w[t][g][3]=[];for(let e=0;e&lt;4;++e)n=i(w[t][1][0],w[t][0][0]),o=i(w[t][g][0],w[t][g-1][0]),w[t][0][3][e]=n&gt;0?2*(w[t][1][1][e]-w[t][0][1][e])/n-w[t][1][3][e]:0,w[t][g][3][e]=o&gt;0?2*(w[t][g][1][e]-w[t][g-1][1][e])/o-w[t][g-1][3][e]:0}for(let s=0;s&lt;x;++s)for(let r=0;r&lt;g;++r){let n=i(w[s][r][0],w[s+1][r][0]),o=i(w[s][r+1][0],w[s+1][r+1][0]),c=i(w[s][r][0],w[s][r+1][0]),x=i(w[s+1][r][0],w[s+1][r+1][0]),g=[[],[],[],[]];for(let t=0;t&lt;4;++t){(d=[])[0]=w[s][r][1][t],d[1]=w[s+1][r][1][t],d[2]=w[s][r+1][1][t],d[3]=w[s+1][r+1][1][t],d[4]=w[s][r][2][t]*n,d[5]=w[s+1][r][2][t]*n,d[6]=w[s][r+1][2][t]*o,d[7]=w[s+1][r+1][2][t]*o,d[8]=w[s][r][3][t]*c,d[9]=w[s+1][r][3][t]*x,d[10]=w[s][r+1][3][t]*c,d[11]=w[s+1][r+1][3][t]*x,d[12]=0,d[13]=0,d[14]=0,d[15]=0,u=f(d);for(let e=0;e&lt;9;++e){g[t][e]=[];for(let s=0;s&lt;9;++s)g[t][e][s]=p(u,e/8,s/8),g[t][e][s]&gt;255?g[t][e][s]=255:g[t][e][s]&lt;0&amp;&amp;(g[t][e][s]=0)}}h=[];for(let t=3*s,e=3*s+4;t&lt;e;++t)h.push(this.nodes[t].slice(3*r,3*r+4));l=y(h);for(let s=0;s&lt;8;++s)for(let r=0;r&lt;8;++r)(a=new m(l[s][r],[[[g[0][s][r],g[1][s][r],g[2][s][r],g[3][s][r]],[g[0][s][r+1],g[1][s][r+1],g[2][s][r+1],g[3][s][r+1]]],[[g[0][s+1][r],g[1][s+1][r],g[2][s+1][r],g[3][s+1][r]],[g[0][s+1][r+1],g[1][s+1][r+1],g[2][s+1][r+1],g[3][s+1][r+1]]]])).paint(t,e)}}}transform(t){if(t instanceof x)for(let e=0,s=this.nodes.length;e&lt;s;++e)for(let s=0,r=this.nodes[0].length;s&lt;r;++s)this.nodes[e][s]=this.nodes[e][s].add(t);else if(t instanceof g)for(let e=0,s=this.nodes.length;e&lt;s;++e)for(let s=0,r=this.nodes[0].length;s&lt;r;++s)this.nodes[e][s]=this.nodes[e][s].transform(t)}scale(t){for(let e=0,s=this.nodes.length;e&lt;s;++e)for(let s=0,r=this.nodes[0].length;s&lt;r;++s)this.nodes[e][s]=this.nodes[e][s].scale(t)}}document.querySelectorAll(&quot;rect,circle,ellipse,path,text&quot;).forEach((r,n)=&gt;{let o=r.getAttribute(&quot;id&quot;);o||(o=&quot;patchjs_shape&quot;+n,r.setAttribute(&quot;id&quot;,o));const i=r.style.fill.match(/^url\(\s*&quot;?\s*#([^\s&quot;]+)&quot;?\s*\)/),a=r.style.stroke.match(/^url\(\s*&quot;?\s*#([^\s&quot;]+)&quot;?\s*\)/);if(i&amp;&amp;i[1]){const a=document.getElementById(i[1]);if(a&amp;&amp;&quot;meshgradient&quot;===a.nodeName){const i=r.getBBox();let l=document.createElementNS(s,&quot;canvas&quot;);d(l,{width:i.width,height:i.height});const c=l.getContext(&quot;2d&quot;);let u=c.createImageData(i.width,i.height);const f=new b(a);&quot;objectBoundingBox&quot;===a.getAttribute(&quot;gradientUnits&quot;)&amp;&amp;f.scale(new x(i.width,i.height));const p=a.getAttribute(&quot;gradientTransform&quot;);null!=p&amp;&amp;f.transform(h(p)),&quot;userSpaceOnUse&quot;===a.getAttribute(&quot;gradientUnits&quot;)&amp;&amp;f.transform(new x(-i.x,-i.y)),f.paintMesh(u.data,l.width),c.putImageData(u,0,0);const y=document.createElementNS(t,&quot;image&quot;);d(y,{width:i.width,height:i.height,x:i.x,y:i.y});let g=l.toDataURL();y.setAttributeNS(e,&quot;xlink:href&quot;,g),r.parentNode.insertBefore(y,r),r.style.fill=&quot;none&quot;;const w=document.createElementNS(t,&quot;use&quot;);w.setAttributeNS(e,&quot;xlink:href&quot;,&quot;#&quot;+o);const m=&quot;patchjs_clip&quot;+n,M=document.createElementNS(t,&quot;clipPath&quot;);M.setAttribute(&quot;id&quot;,m),M.appendChild(w),r.parentElement.insertBefore(M,r),y.setAttribute(&quot;clip-path&quot;,&quot;url(#&quot;+m+&quot;)&quot;),u=null,l=null,g=null}}if(a&amp;&amp;a[1]){const o=document.getElementById(a[1]);if(o&amp;&amp;&quot;meshgradient&quot;===o.nodeName){const i=parseFloat(r.style.strokeWidth.slice(0,-2))*(parseFloat(r.style.strokeMiterlimit)||parseFloat(r.getAttribute(&quot;stroke-miterlimit&quot;))||1),a=r.getBBox(),l=Math.trunc(a.width+i),c=Math.trunc(a.height+i),u=Math.trunc(a.x-i/2),f=Math.trunc(a.y-i/2);let p=document.createElementNS(s,&quot;canvas&quot;);d(p,{width:l,height:c});const y=p.getContext(&quot;2d&quot;);let g=y.createImageData(l,c);const w=new b(o);&quot;objectBoundingBox&quot;===o.getAttribute(&quot;gradientUnits&quot;)&amp;&amp;w.scale(new x(l,c));const m=o.getAttribute(&quot;gradientTransform&quot;);null!=m&amp;&amp;w.transform(h(m)),&quot;userSpaceOnUse&quot;===o.getAttribute(&quot;gradientUnits&quot;)&amp;&amp;w.transform(new x(-u,-f)),w.paintMesh(g.data,p.width),y.putImageData(g,0,0);const M=document.createElementNS(t,&quot;image&quot;);d(M,{width:l,height:c,x:0,y:0});let S=p.toDataURL();M.setAttributeNS(e,&quot;xlink:href&quot;,S);const k=&quot;pattern_clip&quot;+n,A=document.createElementNS(t,&quot;pattern&quot;);d(A,{id:k,patternUnits:&quot;userSpaceOnUse&quot;,width:l,height:c,x:u,y:f}),A.appendChild(M),o.parentNode.appendChild(A),r.style.stroke=&quot;url(#&quot;+k+&quot;)&quot;,g=null,p=null,S=null}}})}();
</script>
</svg>
